<svg width="624" height="429" viewBox="0 0 624 429" fill="none" xmlns="http://www.w3.org/2000/svg">
<g clip-path="url(#clip0_223_154)">
<path d="M615.72 1.40638e-08H8.71973C6.40771 0.00210513 4.191 0.921527 2.55618 2.5564C0.921366 4.19127 0.00203087 6.40799 0 8.72V420.04C0.00202823 422.352 0.921366 424.569 2.55618 426.204C4.191 427.838 6.40771 428.758 8.71973 428.76H615.72C616.98 428.76 618.226 428.486 619.371 427.958C620.516 427.43 621.532 426.659 622.35 425.7C622.419 425.625 622.483 425.545 622.54 425.46C623.061 424.824 623.482 424.112 623.79 423.35C624.229 422.302 624.453 421.176 624.45 420.04V8.72006C624.447 6.40641 623.526 4.18838 621.889 2.55331C620.252 0.918248 618.033 -0.000131224 615.72 1.40638e-08ZM621.96 420.04C621.961 421.257 621.603 422.446 620.93 423.46C620.332 424.352 619.521 425.081 618.57 425.58C617.689 426.035 616.711 426.272 615.72 426.27H8.71973C7.06804 426.268 5.48457 425.611 4.31665 424.443C3.14873 423.275 2.49172 421.692 2.48972 420.04V8.72006C2.49171 7.06837 3.14873 5.48488 4.31665 4.31696C5.48457 3.14903 7.06803 2.492 8.71973 2.48999H615.72C617.373 2.48978 618.959 3.14579 620.129 4.3139C621.299 5.48202 621.957 7.06675 621.96 8.72006V420.04Z" fill="#3F3D56"/>
<path d="M623.199 34.9492H1.24268V37.442H623.199V34.9492Z" fill="#3F3D56"/>
<path d="M22.4316 26.1744C26.5618 26.1744 29.91 22.8262 29.91 18.696C29.91 14.5657 26.5618 11.2175 22.4316 11.2175C18.3013 11.2175 14.9531 14.5657 14.9531 18.696C14.9531 22.8262 18.3013 26.1744 22.4316 26.1744Z" fill="#3F3D56"/>
<path d="M43.9321 26.1744C48.0623 26.1744 51.4105 22.8262 51.4105 18.696C51.4105 14.5657 48.0623 11.2175 43.9321 11.2175C39.8018 11.2175 36.4536 14.5657 36.4536 18.696C36.4536 22.8262 39.8018 26.1744 43.9321 26.1744Z" fill="#3F3D56"/>
<path d="M65.4325 26.1744C69.5628 26.1744 72.911 22.8262 72.911 18.696C72.911 14.5657 69.5628 11.2175 65.4325 11.2175C61.3023 11.2175 57.9541 14.5657 57.9541 18.696C57.9541 22.8262 61.3023 26.1744 65.4325 26.1744Z" fill="#3F3D56"/>
<path d="M276.977 246.87C269.498 242.001 265.778 230.686 267.61 220.338C269.443 209.991 276.345 201.078 284.618 197.234C288.642 195.42 293.055 194.634 297.458 194.947C301.861 195.26 306.118 196.662 309.846 199.027C317.433 203.667 328.163 206.208 331.766 215.49C334.535 222.623 331.023 237.107 327.296 244.035C324.076 250.024 317.955 252.763 312.205 253.953C305.843 255.25 299.278 255.166 292.951 253.707C286.625 252.247 280.686 249.446 275.536 245.492L276.977 246.87Z" fill="#2F2E41"/>
<path d="M273.076 301.83L267.096 312.14L266.306 313.5L265.156 315.5H247.526L248.716 313.5L251.796 308.31L258.976 296.19L267.106 299.44L273.076 301.83Z" fill="#FFB8B8"/>
<path d="M246.206 315.5L242.986 313.5L242.586 313.25L262.796 276.42C263.665 274.826 264.842 273.42 266.258 272.284C267.674 271.147 269.302 270.303 271.046 269.8C273.248 269.144 275.581 269.058 277.826 269.55C279.136 269.827 280.397 270.299 281.566 270.95C282.047 271.214 282.512 271.508 282.956 271.83C284.665 273.028 286.069 274.611 287.056 276.45C288.23 278.603 288.811 281.03 288.737 283.482C288.663 285.934 287.938 288.321 286.636 290.4L278.846 302.85L272.186 313.5L270.936 315.5H246.206Z" fill="#2F2E41"/>
<path d="M298.13 259.941C311.695 259.941 322.691 248.945 322.691 235.38C322.691 221.816 311.695 210.819 298.13 210.819C284.565 210.819 273.569 221.816 273.569 235.38C273.569 248.945 284.565 259.941 298.13 259.941Z" fill="#FFB8B8"/>
<path d="M322.786 315.5H267.576L267.826 314.79C267.686 314.36 267.556 313.93 267.436 313.5C267.306 313.05 267.196 312.59 267.096 312.14C266.199 307.954 266.202 303.625 267.106 299.44C270.156 284.46 282.326 272.29 282.326 272.29C282.536 272.13 282.746 271.98 282.956 271.83C284.766 270.504 286.731 269.403 288.806 268.55C297.846 264.8 307.326 266.31 313.696 268.25C315.914 268.921 318.083 269.746 320.186 270.72C320.926 271.07 321.326 271.29 321.326 271.29L321.956 290.5L322.716 313.5L322.786 315.5Z" fill="#6C63FF"/>
<path d="M348.326 313.5L344.106 292.04L339.846 270.4C339.669 269.506 339.225 268.687 338.573 268.05C337.922 267.413 337.093 266.988 336.196 266.83L327.276 265.29L318.976 263.86C318.175 263.716 317.351 263.793 316.591 264.084C315.831 264.375 315.166 264.868 314.666 265.51C314.042 266.287 313.7 267.253 313.696 268.25C313.696 268.866 313.822 269.475 314.066 270.04C318.396 280.14 318.476 296.13 317.376 313.5C317.326 314.16 317.286 314.83 317.236 315.5H348.726L348.326 313.5Z" fill="#2F2E41"/>
<path d="M288.806 268.55C288.623 267.822 288.261 267.151 287.754 266.598C287.246 266.045 286.61 265.627 285.9 265.381C285.191 265.135 284.432 265.069 283.691 265.189C282.95 265.309 282.251 265.612 281.656 266.07L277.826 269.55L262.146 283.83C261.657 284.268 261.274 284.812 261.026 285.42C259.256 289.65 255.806 298 251.796 308.31C251.146 309.99 250.476 311.72 249.786 313.5C249.546 314.16 249.286 314.83 249.026 315.5H274.866C275.076 314.83 275.286 314.16 275.496 313.5C276.646 309.87 277.766 306.31 278.846 302.85C282.006 292.8 284.856 283.67 287.056 276.45C287.666 274.45 288.223 272.603 288.726 270.91C288.961 270.144 288.989 269.33 288.806 268.55Z" fill="#2F2E41"/>
<path d="M354.126 315.5H355.796L355.566 314.94L354.956 313.5L345.546 291.17L344.106 292.04L332.546 299.03L338.476 313.5L339.296 315.5H348.726H354.126Z" fill="#FFB8B8"/>
<path d="M344.586 273.46C343.313 270.127 340.8 267.416 337.574 265.894C334.348 264.371 330.658 264.155 327.276 265.29C326.844 265.433 326.42 265.6 326.006 265.79C323.637 266.847 321.618 268.557 320.186 270.72C319.602 271.584 319.122 272.514 318.756 273.49C318.107 275.185 317.8 276.992 317.854 278.806C317.907 280.62 318.319 282.406 319.066 284.06L321.956 290.5L332.296 313.5L333.196 315.5H354.126L355.566 314.94L359.306 313.5L359.826 313.3L344.586 273.46Z" fill="#2F2E41"/>
<path d="M317.42 207.172C318.276 207.428 319.193 207.396 320.029 207.079C320.864 206.761 321.572 206.178 322.042 205.418C322.488 204.643 322.75 203.777 322.808 202.885C322.867 201.994 322.721 201.101 322.381 200.274C321.684 198.625 320.585 197.176 319.185 196.06C317.596 194.621 315.66 193.619 313.568 193.151C312.522 192.927 311.441 192.929 310.397 193.159C309.352 193.388 308.37 193.84 307.515 194.482C306.676 195.146 306.054 196.045 305.729 197.065C305.403 198.084 305.39 199.177 305.689 200.205C306.325 202.049 308.048 203.285 309.768 204.205C313.181 206.027 316.945 207.097 320.806 207.343L317.42 207.172Z" fill="#2F2E41"/>
<path d="M322.198 234.647C318.25 235.191 318.757 233.181 317.175 229.522C315.594 225.864 313.477 221.52 309.508 221.149C306.256 220.846 303.576 223.446 300.941 225.377C296.245 228.818 289.915 230.502 284.472 228.438C279.028 226.373 275.245 219.885 277.31 214.442C277.953 212.939 278.898 211.584 280.086 210.461C281.274 209.338 282.68 208.47 284.217 207.913C287.3 206.817 290.574 206.362 293.839 206.576C301.101 206.808 308.223 208.631 314.703 211.917C319.175 214.189 323.529 217.44 325.226 222.161C326.922 226.882 328.039 233.516 323.188 234.793L322.198 234.647Z" fill="#2F2E41"/>
<path d="M315.402 194.187C313.45 190.79 315.061 186.128 318.255 183.858C321.448 181.588 325.732 181.366 329.543 182.276C333.312 183.225 336.765 185.149 339.555 187.854C342.346 190.559 344.377 193.95 345.443 197.687C347.06 203.629 346.099 210.01 347.469 216.013C348.199 219.213 349.576 222.23 351.516 224.877C353.456 227.525 355.917 229.748 358.748 231.408C361.58 233.069 364.721 234.132 367.979 234.533C371.236 234.934 374.542 234.663 377.691 233.738C381.793 232.534 385.962 229.605 386.365 225.349C386.79 230.237 385.675 235.134 383.178 239.357C380.68 243.58 376.925 246.916 372.437 248.898C367.152 251.103 361.257 251.246 355.532 251.099C351.801 251.004 347.986 250.779 344.544 249.336C342.163 248.25 340.023 246.699 338.248 244.776C336.474 242.852 335.101 240.593 334.211 238.132C332.459 233.185 331.986 227.876 332.835 222.697C333.399 218.668 334.519 214.72 334.832 210.665C335.146 206.609 334.551 202.279 332.051 199.071C329.551 195.862 324.775 194.224 321.221 196.201C319.792 196.995 318.64 198.294 317.088 198.806C315.535 199.319 313.336 198.418 313.477 196.789L315.402 194.187Z" fill="#2F2E41"/>
<path d="M483.006 315.5L483.196 313.5L488.836 254.82C490.685 253.372 492.671 252.11 494.766 251.05C506.376 245.2 517.576 248 523.636 250.42C525.242 251.049 526.794 251.808 528.276 252.69L531.576 313.5L531.686 315.5H483.006Z" fill="#6C63FF"/>
<path d="M509.419 239.203C522.984 239.203 533.98 228.206 533.98 214.642C533.98 201.077 522.984 190.081 509.419 190.081C495.854 190.081 484.858 201.077 484.858 214.642C484.858 228.206 495.854 239.203 509.419 239.203Z" fill="#FFB8B8"/>
<path d="M529.347 229.618C531.173 227.693 532.385 225.27 532.829 222.655C533.273 220.04 532.93 217.352 531.842 214.933C530.754 212.514 528.972 210.473 526.721 209.07C524.47 207.667 521.853 206.965 519.202 207.053C515.806 207.167 512.605 208.557 509.364 209.577C504.452 211.248 499.211 211.72 494.079 210.953C488.916 210.152 484.258 207.401 481.063 203.268C478.024 199.091 477.076 193.298 479.223 188.6C481.701 183.177 487.49 180.189 492.937 177.76C495.133 176.661 497.479 175.89 499.899 175.473C501.111 175.272 502.353 175.323 503.544 175.623C504.736 175.924 505.853 176.467 506.825 177.219C508.356 178.535 509.253 180.514 510.918 181.654C512.793 182.939 515.228 182.905 517.489 183.131C522.582 183.641 527.399 185.689 531.299 189.003C535.199 192.318 537.998 196.741 539.323 201.684C540.649 206.628 540.437 211.858 538.718 216.679C536.998 221.499 533.852 225.682 529.697 228.671L529.347 229.618Z" fill="#2F2E41"/>
<path d="M498.426 261.21L494.766 251.05L494.538 250.417C494.429 250.116 494.254 249.845 494.025 249.622C493.796 249.399 493.52 249.232 493.217 249.132C492.914 249.032 492.592 249.003 492.275 249.045C491.959 249.088 491.657 249.203 491.391 249.38L487.236 252.15C487.236 252.15 460.586 252.15 458.446 268.14C458.416 268.39 458.376 268.67 458.346 268.97C458.345 268.984 458.341 268.997 458.336 269.01C458.066 270.06 453.036 289.5 448.716 313.5C448.596 314.16 448.476 314.83 448.356 315.5H506.266C508.15 291.391 507.096 268.975 498.426 261.21Z" fill="#2F2E41"/>
<path d="M567.506 313.5C564.346 288.88 559.826 268.97 559.826 268.97C559.786 268.67 559.746 268.39 559.716 268.14C557.586 252.15 530.936 252.15 530.936 252.15L526.783 249.381C526.518 249.204 526.215 249.09 525.899 249.047C525.582 249.004 525.26 249.034 524.957 249.134C524.653 249.234 524.377 249.402 524.148 249.625C523.919 249.847 523.744 250.119 523.636 250.42L519.746 261.21C511.076 268.975 510.022 291.39 511.906 315.499L567.756 315.5C567.676 314.83 567.586 314.16 567.506 313.5Z" fill="#2F2E41"/>
<path d="M98.4259 257.44L92.4859 313.5L92.2759 315.5H76.2062C76.3961 314.85 76.5861 314.18 76.7863 313.5C81.3463 297.86 87.5563 275.03 86.8859 268.98C85.8361 259.54 93.1862 256.39 93.1862 256.39L93.6461 256.48L98.4259 257.44Z" fill="#6C63FF"/>
<path d="M124.343 240.136C137.907 240.136 148.904 229.14 148.904 215.575C148.904 202.01 137.907 191.014 124.343 191.014C110.778 191.014 99.7816 202.01 99.7816 215.575C99.7816 229.14 110.778 240.136 124.343 240.136Z" fill="#A0616A"/>
<path d="M156.136 303.6C154.897 305.883 153.883 308.281 153.106 310.76C152.816 311.64 152.536 312.56 152.276 313.5C152.086 314.15 151.916 314.82 151.746 315.5H86.9658C87.0562 314.84 87.1357 314.17 87.2261 313.5C90.5361 287.35 93.2158 260.81 93.646 256.48C93.686 256.07 93.7061 255.86 93.7061 255.86C132.526 235.4 160.856 262.16 160.856 262.16C160.856 262.16 160.896 262.35 160.956 262.72C161.576 266.46 164.736 288.3 156.136 303.6Z" fill="#6C63FF"/>
<path d="M153.106 310.76L148.786 301.5L149.836 264.78L160.956 262.72L161.346 262.65C167.094 265.991 171.542 271.179 173.966 277.37C176.126 282.77 180.236 299.01 183.706 313.5C183.866 314.17 184.026 314.84 184.186 315.5H155.316L154.386 313.5L153.106 310.76Z" fill="#6C63FF"/>
<path d="M192.616 150.5H50.5963C47.5501 150.504 44.6297 151.715 42.4756 153.869C40.3216 156.023 39.1098 158.944 39.1061 161.99V304.01C39.1098 307.056 40.3216 309.977 42.4756 312.131C44.6297 314.285 47.5501 315.496 50.5963 315.5H192.616C195.663 315.498 198.584 314.287 200.739 312.132C202.893 309.978 204.104 307.057 204.106 304.01V161.99C204.104 158.943 202.893 156.022 200.739 153.868C198.584 151.713 195.663 150.502 192.616 150.5ZM202.106 304.01C202.104 306.526 201.104 308.939 199.324 310.718C197.545 312.497 195.133 313.498 192.616 313.5H50.5963C48.0806 313.496 45.6689 312.495 43.89 310.716C42.111 308.937 41.1099 306.526 41.1061 304.01V161.99C41.1099 159.474 42.111 157.063 43.89 155.284C45.6689 153.505 48.0806 152.504 50.5963 152.5H192.616C195.133 152.502 197.545 153.503 199.324 155.282C201.104 157.061 202.104 159.474 202.106 161.99V304.01ZM92.486 313.5L92.2759 315.5H151.746C151.916 314.82 152.086 314.15 152.276 313.5H92.486Z" fill="#3F3D56"/>
<path d="M383.226 150.5H241.206C238.16 150.504 235.239 151.715 233.085 153.869C230.931 156.023 229.72 158.944 229.716 161.99V304.01C229.72 307.056 230.931 309.977 233.085 312.131C235.239 314.285 238.16 315.496 241.206 315.5H383.226C386.273 315.498 389.194 314.287 391.349 312.132C393.503 309.978 394.714 307.057 394.716 304.01V161.99C394.714 158.943 393.503 156.022 391.349 153.868C389.194 151.713 386.273 150.502 383.226 150.5ZM392.716 304.01C392.714 306.526 391.713 308.939 389.934 310.718C388.155 312.497 385.742 313.498 383.226 313.5H241.206C238.69 313.496 236.279 312.495 234.5 310.716C232.721 308.937 231.72 306.526 231.716 304.01V161.99C231.72 159.474 232.721 157.063 234.5 155.284C236.279 153.505 238.69 152.504 241.206 152.5H383.226C385.742 152.502 388.155 153.503 389.934 155.282C391.713 157.061 392.714 159.474 392.716 161.99V304.01ZM267.436 313.5C267.556 313.93 267.686 314.36 267.826 314.79L267.576 315.5H317.236C317.286 314.83 317.326 314.16 317.376 313.5H267.436Z" fill="#3F3D56"/>
<path d="M573.846 150.5H431.826C428.78 150.502 425.858 151.713 423.704 153.867C421.549 156.022 420.338 158.943 420.336 161.99V304.01C420.338 307.057 421.549 309.978 423.704 312.133C425.858 314.287 428.78 315.498 431.826 315.5H573.846C576.892 315.496 579.813 314.285 581.967 312.131C584.121 309.977 585.332 307.056 585.336 304.01V161.99C585.332 158.944 584.121 156.023 581.967 153.87C579.813 151.716 576.892 150.504 573.846 150.5ZM583.336 304.01C583.332 306.526 582.331 308.937 580.552 310.716C578.774 312.495 576.362 313.496 573.846 313.5H431.826C429.31 313.498 426.897 312.497 425.118 310.718C423.339 308.939 422.338 306.526 422.336 304.01V161.99C422.338 159.474 423.339 157.061 425.118 155.282C426.897 153.503 429.31 152.502 431.826 152.5H573.846C576.362 152.504 578.774 153.505 580.552 155.284C582.331 157.063 583.332 159.474 583.336 161.99V304.01ZM506.416 313.5C506.366 314.16 506.316 314.83 506.266 315.5H549.356C549.436 314.84 549.526 314.17 549.606 313.5H506.416Z" fill="#3F3D56"/>
<path d="M477.221 373.5H147.221C145.099 373.5 143.064 372.657 141.564 371.157C140.064 369.657 139.221 367.622 139.221 365.5C139.221 363.378 140.064 361.343 141.564 359.843C143.064 358.343 145.099 357.5 147.221 357.5H477.221C479.343 357.5 481.378 358.343 482.878 359.843C484.378 361.343 485.221 363.378 485.221 365.5C485.221 367.622 484.378 369.657 482.878 371.157C481.378 372.657 479.343 373.5 477.221 373.5Z" fill="#CCCCCC"/>
<path d="M384.721 108.5H239.721C237.599 108.5 235.564 107.657 234.064 106.157C232.564 104.657 231.721 102.622 231.721 100.5C231.721 98.3783 232.564 96.3435 234.064 94.8432C235.564 93.3429 237.599 92.5 239.721 92.5H384.721C386.843 92.5 388.878 93.3429 390.378 94.8432C391.878 96.3435 392.721 98.3783 392.721 100.5C392.721 102.622 391.878 104.657 390.378 106.157C388.878 107.657 386.843 108.5 384.721 108.5Z" fill="#6C63FF"/>
<path d="M136.091 236.974C136.922 237.794 138.022 238.287 139.188 238.361C140.353 238.436 141.507 238.088 142.436 237.38C148.225 233.09 153.307 227.748 156.314 221.234C159.76 213.769 160.145 204.608 155.99 197.513C152.478 191.516 146.275 187.645 140.094 184.467C137.694 183.113 135.109 182.116 132.42 181.51C129.703 180.91 126.859 181.369 124.469 182.793C123.299 183.526 122.378 184.595 121.824 185.86C121.271 187.125 121.112 188.527 121.368 189.884C118.399 186.496 114.596 183.943 110.336 182.478C107.654 181.429 104.717 181.216 101.911 181.867C97.9883 182.98 95.1246 186.465 93.5583 190.229C92.2916 193.093 91.8542 196.254 92.2959 199.354C92.5283 200.897 93.0819 202.373 93.9209 203.689C94.7599 205.004 95.8656 206.128 97.1665 206.989C100.41 208.996 104.547 208.851 108.272 208.031C111.996 207.211 115.601 205.786 119.398 205.425C123.195 205.064 127.422 206.011 129.733 209.045C131.36 211.182 131.778 213.973 132.143 216.634L134.043 230.473C134.198 232.475 134.71 234.433 135.553 236.256C135.699 236.518 135.88 236.76 136.091 236.974Z" fill="#2F2E41"/>
</g>
<defs>
<clipPath id="clip0_223_154">
<rect width="624" height="429" fill="white"/>
</clipPath>
</defs>
</svg>
