<svg width="512" height="512" viewBox="0 0 512 512" fill="none" xmlns="http://www.w3.org/2000/svg">
<path d="M346.63 284.055C346.087 286.945 345.075 289.835 345.07 292.725C344.977 349.517 344.925 406.31 345.127 463.101C345.146 468.321 343.632 472.27 340.51 476.204C330.408 488.936 330.488 489.003 314.298 489C246.181 488.987 178.064 488.973 109.31 488.616C101.749 478.114 93.9779 468.424 88.0601 457.71C70.0828 425.161 62.4368 390.267 65.8867 352.997C67.9183 331.051 73.3723 310.16 82.8402 290.293C93.487 267.951 107.809 248.393 126.432 231.968C140.406 219.643 155.433 208.958 173.016 202.591C183.439 198.816 194.331 196.333 205.012 193.27C228.299 192.416 267.852 203.035 285.018 214.965C277.948 217.388 271.217 219.699 264.483 222.002C252.589 226.069 249.009 231.114 249.001 243.838C248.999 246.468 249.001 249.097 249.001 251.785C195.88 230.79 150.268 239.629 115.648 286.142C90.7694 319.567 90.0941 365.714 113.251 400.372C142.057 443.485 183.006 456.328 233.001 444.618C233.001 453.291 232.972 462.099 233.01 470.907C233.042 478.148 235.786 480.952 242.909 480.988C252.074 481.034 261.239 481.015 270.404 480.994C278.3 480.976 280.979 478.361 280.991 470.587C281.017 454.59 281.414 438.578 280.827 422.602C280.526 414.415 282.127 407.566 289 401.464C289 403.343 289 404.83 289 406.317C289 427.646 288.99 448.976 289.006 470.305C289.012 478.45 291.584 480.981 299.807 480.995C308.972 481.012 318.137 481.041 327.302 480.984C334.125 480.942 336.98 478.084 336.985 471.189C337.013 429.697 337.014 388.205 336.983 346.712C336.978 339.863 334.097 337.058 327.21 337.012C319.893 336.964 312.576 337.001 305.115 337.001C303.872 330.52 302.687 324.344 301.739 317.508C313.172 308.571 324.36 300.281 335.57 292.021C339.228 289.326 342.942 286.708 346.63 284.055Z" fill="#44BB59"/>
<path d="M138.934 282.858C158.467 263.168 182.282 255.209 209.631 257.452C222.217 258.483 233.938 262.568 244.966 268.78C247.896 270.43 249.304 272.158 249.095 275.702C248.752 281.51 249.136 287.358 248.967 293.181C248.765 300.174 251.116 305.857 256.959 310.796C257.078 316.506 256.907 321.476 257.041 326.437C257.282 335.384 265.013 339.484 272.652 334.935C277.312 332.159 282.127 329.642 286.873 327.009C291.164 345.244 288.824 362.776 281.375 380.645C280.38 370.811 278.383 369.006 269.357 369.003C260.375 368.999 251.393 369.062 242.412 368.975C238.367 368.936 235.284 370.267 233.262 373.801C232.816 370.013 233.145 366.436 232.464 363.063C229.339 347.588 217.463 337.692 201.591 336.997C194.475 336.686 189.073 333.56 186.297 326.92C183.668 320.632 185.003 314.709 189.731 309.912C194.454 305.119 200.315 303.733 206.687 306.192C213.249 308.723 216.199 314.103 217.17 320.813C222.419 320.813 227.535 320.813 232.634 320.813C233.658 307.65 225.765 297.243 208.927 289.605C208.927 286.967 208.927 284.189 208.927 281.207C203.548 281.207 198.473 281.207 193.087 281.207C193.087 284.169 193.087 286.945 193.087 289.718C191.141 290.523 189.443 291.175 187.786 291.919C171.608 299.183 164.35 318.157 171.868 334.226C177.523 346.315 187.283 352.479 200.642 353.03C208.746 353.363 214.306 357.771 216.303 365.211C218.029 371.642 215.41 378.442 209.783 382.138C203.659 386.16 196.034 386.151 190.944 381.027C187.857 377.919 186.116 373.475 183.547 369.265C179.344 369.265 174.242 369.265 168.835 369.265C169.948 385.281 178.4 395.18 192.833 400.192C192.833 402.336 192.833 404.155 192.487 405.919C171.868 397.274 156.127 383.385 145.327 364.313C134.808 345.737 130.669 325.651 133.946 304.358C135 297.508 136.607 290.743 137.961 283.939C137.961 283.939 137.992 283.998 138.21 283.885C138.597 283.467 138.766 283.162 138.934 282.858Z" fill="#CCF7C7"/>
<path d="M204.553 193.172C194.331 196.333 183.44 198.816 173.016 202.591C155.433 208.958 140.406 219.643 126.432 231.968C107.809 248.393 93.4871 267.951 82.8403 290.293C73.3725 310.16 67.9184 331.051 65.8869 352.997C62.4369 390.267 70.0829 425.161 88.0603 457.71C93.978 468.424 101.75 478.114 108.847 488.55C97.6908 488.884 86.3574 489.099 75.0345 488.845C73.1098 488.801 70.7868 487.139 69.396 485.564C47.8515 461.164 33.6232 433.051 27.9993 400.939C14.3138 322.795 50.8832 248.645 121.229 212.125C147.105 198.691 174.865 192.439 204.553 193.172Z" fill="#2D9639"/>
<path d="M420.971 105.866C419.537 108.21 417.71 110.402 416.732 112.923C411.242 127.076 405.955 141.309 400.086 155.929C399.409 156.936 399.245 157.528 399.082 158.12C399.082 158.12 399.057 158.044 398.777 158.176C397.827 159.242 397.105 160.144 396.495 161.116C388.993 173.073 381.961 185.357 373.914 196.935C360.178 216.697 343.859 234.32 324.52 248.625C309.851 259.474 294.039 268.785 278.651 278.649C274.543 281.283 270.79 285.118 265.148 284.03C265.098 270.048 265.165 256.064 264.915 242.086C264.853 238.612 266.966 238.024 269.342 237.175C284.504 231.759 300.326 227.683 314.691 220.638C360.775 198.039 392.69 162.67 407.352 112.784C407.82 111.193 408.131 109.557 408.55 107.951C409.841 103.001 408.024 99.5445 403.536 97.3032C393.43 92.256 383.335 87.1871 373.239 82.1186C372.094 81.5441 370.977 80.916 369.091 79.9091C394.327 63.0881 418.998 46.644 444.318 29.7677C451.296 54.2354 458.149 78.2608 464.585 102.669C456.374 100.965 448.555 98.9645 440.79 96.772C431.939 94.2731 424.925 97.4202 420.971 105.866Z" fill="#FDC138"/>
<path d="M137.638 284.041C136.607 290.743 135 297.508 133.946 304.358C130.669 325.652 134.808 345.737 145.327 364.313C156.127 383.385 171.868 397.274 192.56 406.353C193.733 407.562 194.423 408.802 195.254 408.906C197.821 409.225 200.442 409.112 203.331 409.391C213.359 410.735 223.099 411.854 232.839 412.974C232.893 413.636 232.985 414.298 232.995 414.961C233.18 427.956 233.178 427.956 220.271 430.813C161.92 443.73 107.947 396.607 113.204 337.124C115.005 316.745 123.132 299.006 137.638 284.041Z" fill="#AAE3A2"/>
<path d="M154.069 89.1978C185.311 89.1343 216.554 88.9803 247.795 89.1975C250.033 89.213 253.076 91.4457 254.324 93.5075C257.885 99.3922 258.181 105.735 254.675 111.972C250.037 120.222 245.437 128.493 240.077 136.922C225.724 137.059 212.114 137.017 198.504 137.005C188.557 136.997 179.344 134.009 173.195 126.349C166.833 118.423 161.856 109.316 156.866 100.395C155.053 97.1546 154.951 92.958 154.069 89.1978Z" fill="#44BC59"/>
<path d="M203.042 409.166C200.442 409.112 197.821 409.225 195.254 408.906C194.423 408.802 193.733 407.562 192.906 406.408C192.833 404.155 192.833 402.336 192.833 400.192C178.4 395.18 169.948 385.281 168.835 369.265C174.242 369.265 179.344 369.265 183.547 369.265C186.116 373.475 187.857 377.919 190.944 381.027C196.034 386.151 203.66 386.16 209.783 382.138C215.41 378.442 218.029 371.642 216.303 365.211C214.307 357.772 208.746 353.364 200.642 353.03C187.284 352.479 177.523 346.315 171.868 334.226C164.35 318.157 171.608 299.183 187.787 291.919C189.443 291.175 191.141 290.523 193.087 289.719C193.087 286.945 193.087 284.169 193.087 281.207C198.473 281.207 203.548 281.207 208.927 281.207C208.927 284.189 208.927 286.967 208.927 289.605C225.765 297.243 233.658 307.65 232.634 320.813C227.535 320.813 222.419 320.813 217.17 320.813C216.199 314.103 213.249 308.723 206.687 306.192C200.315 303.733 194.454 305.119 189.731 309.912C185.003 314.709 183.669 320.632 186.297 326.92C189.073 333.56 194.476 336.686 201.591 336.997C217.463 337.692 229.339 347.588 232.464 363.063C233.146 366.436 232.816 370.013 232.938 373.99C232.923 374.484 232.956 374.416 232.784 374.758C229.466 387.888 221.491 396.223 208.813 400.223C208.813 403.307 208.813 406.076 208.813 408.865C206.663 408.978 204.852 409.072 203.042 409.166Z" fill="#030403"/>
<path d="M488.843 462.032C489.323 464.035 488.915 465.128 486.472 465.041C482.173 464.886 477.864 464.998 473.283 464.998C473.283 374.31 473.283 283.927 473.283 193.021C475.568 193.021 477.84 193.021 480.558 193.552C481.003 278.315 481.001 362.547 481.001 446.78C481.001 447.945 480.881 449.129 481.043 450.272C481.771 455.415 483.472 459.952 488.843 462.032Z" fill="#FFC239"/>
<path d="M488.912 461.564C483.472 459.952 481.771 455.415 481.043 450.272C480.881 449.129 481.001 447.945 481.001 446.78C481.001 362.547 481.003 278.315 481.007 193.625C483.484 193.167 485.958 193.167 488.982 193.167C488.982 282.505 488.982 371.801 488.912 461.564Z" fill="#FFD55D"/>
<path d="M432.843 462.032C433.322 464.035 432.916 465.128 430.472 465.041C426.174 464.886 421.866 464.998 417.283 464.998C417.283 390.31 417.283 315.927 417.283 241.021C419.568 241.021 421.84 241.021 424.558 241.552C425.003 310.317 425.001 378.551 425.001 446.785C425.001 447.95 424.881 449.133 425.043 450.276C425.772 455.417 427.473 459.953 432.843 462.032Z" fill="#FFC239"/>
<path d="M432.912 461.564C427.474 459.953 425.772 455.417 425.043 450.276C424.881 449.133 425.001 447.95 425.001 446.785C425.001 378.551 425.003 310.317 425.007 241.625C427.484 241.167 429.958 241.167 432.982 241.167C432.982 314.504 432.982 387.8 432.912 461.564Z" fill="#FFD55D"/>
<path d="M376.843 462.032C377.322 464.034 376.916 465.128 374.472 465.041C370.174 464.886 365.867 464.997 361.284 464.997C361.284 408.978 361.284 353.261 361.284 297.021C363.568 297.021 365.84 297.021 368.558 297.552C369.003 322.868 369.001 347.653 369 372.438C368.999 397.722 368.967 423.007 369.025 448.291C369.039 454.261 370.784 459.418 376.843 462.032Z" fill="#FFC239"/>
<path d="M153.703 89.1416C154.951 92.958 155.053 97.1546 156.866 100.395C161.856 109.316 166.833 118.423 173.195 126.349C179.343 134.009 188.556 136.997 198.504 137.005C212.114 137.017 225.724 137.059 239.823 137.145C238.654 143.393 234.908 145.361 228.32 145.184C209.045 144.667 189.746 144.929 170.457 145.068C167.099 145.092 165.08 144.254 163.419 141.086C158.247 131.229 152.693 121.572 147.258 111.854C143.866 105.788 144.132 99.6176 147.438 93.8025C148.594 91.7693 151.326 90.6318 153.703 89.1416Z" fill="#2D9639"/>
<path d="M376.913 461.564C370.784 459.418 369.039 454.261 369.025 448.291C368.967 423.007 369 397.722 369 372.438C369.001 347.653 369.003 322.868 369.007 297.625C371.483 297.167 373.956 297.167 376.982 297.167C376.982 351.834 376.982 406.465 376.913 461.564Z" fill="#FFD55D"/>
<path d="M265.077 284.485C270.79 285.118 274.543 281.283 278.651 278.649C294.039 268.785 309.851 259.474 324.519 248.625C343.859 234.32 360.178 216.697 373.914 196.935C381.961 185.357 388.992 173.073 396.495 161.116C397.105 160.144 397.827 159.242 398.816 158.169C391.901 171.639 385.423 185.72 377.285 198.766C356.167 232.618 328.708 260.258 294.05 280.475C286.155 285.08 278.527 290.143 270.761 294.97C269.394 295.82 267.947 296.541 265.006 298.169C265.006 292.956 265.006 288.948 265.077 284.485Z" fill="#EEA307"/>
<path d="M346.816 283.962C342.942 286.708 339.228 289.326 335.57 292.021C324.36 300.281 313.172 308.571 301.67 317.103C299.525 312.389 297.854 307.349 295.773 302.484C294.724 300.032 294.986 298.707 297.261 297.185C312.525 286.973 327.698 276.625 343.552 265.88C345.635 269.045 348.314 273.118 350.752 277.704C349.689 279.671 348.866 281.124 348.044 282.577C347.696 283.007 347.349 283.438 346.816 283.962Z" fill="#2D9639"/>
<path d="M320.843 462.032C321.322 464.034 320.917 465.128 318.473 465.041C314.176 464.886 309.869 464.997 305.285 464.997C305.285 427.646 305.285 390.594 305.285 353.021C307.568 353.021 309.84 353.021 312.558 353.552C313.003 385.325 312.995 416.567 313.007 447.809C313.009 453.966 314.596 459.294 320.843 462.032Z" fill="#FFC239"/>
<path d="M320.912 461.564C314.596 459.294 313.009 453.966 313.006 447.809C312.994 416.567 313.003 385.325 313.007 353.625C315.48 353.167 317.951 353.167 320.982 353.167C320.982 389.162 320.982 425.129 320.912 461.564Z" fill="#FFD55D"/>
<path d="M248.8 168.989C247.952 174.498 245.693 176.937 240.58 176.954C214.172 177.039 187.762 177.137 161.359 176.767C158.746 176.73 155.369 174.08 153.785 171.69C151.636 168.447 153.35 165.017 156.736 162.743C159.992 167.957 164.776 168.98 169.941 168.986C196.227 169.017 222.514 168.993 248.8 168.989Z" fill="#FDC138"/>
<path d="M248.865 168.624C222.514 168.993 196.227 169.017 169.941 168.986C164.776 168.98 159.992 167.957 157.052 162.631C158.866 161.872 160.761 161.062 162.659 161.055C188.219 160.971 213.779 161.03 239.34 160.973C244.513 160.961 247.963 162.895 248.865 168.624Z" fill="#FED45C"/>
<path d="M264.843 462.032C265.321 464.033 264.918 465.128 262.474 465.041C258.176 464.886 253.869 464.997 249.286 464.997C249.286 438.314 249.286 411.928 249.286 385.021C251.569 385.021 253.84 385.021 256.558 385.552C257.003 406.831 256.961 427.579 257.026 448.327C257.045 454.286 258.8 459.426 264.843 462.032Z" fill="#FFC239"/>
<path d="M286.906 326.621C282.127 329.642 277.312 332.159 272.652 334.935C265.013 339.484 257.282 335.384 257.041 326.438C256.907 321.476 257.078 316.506 257.168 311.045C266.272 314.483 267.891 314.318 281.101 307.851C283.068 314.045 285.003 320.139 286.906 326.621Z" fill="#AAE3A2"/>
<path d="M264.912 461.564C258.8 459.426 257.045 454.286 257.026 448.327C256.961 427.579 257.003 406.831 257.007 385.625C259.478 385.167 261.947 385.167 264.982 385.167C264.982 410.488 264.982 435.792 264.912 461.564Z" fill="#FFD55D"/>
<path d="M421.357 105.814C424.925 97.4202 431.939 94.2731 440.789 96.772C448.554 98.9645 456.374 100.965 464.578 103.065C466.379 107.474 467.77 111.869 469.475 117.251C466.775 116.543 464.804 116.061 462.852 115.507C451.395 112.259 439.967 108.906 428.467 105.817C426.371 105.255 423.991 105.753 421.357 105.814Z" fill="#F0A406"/>
<path d="M203.331 409.391C204.852 409.072 206.663 408.978 208.813 408.865C208.813 406.076 208.813 403.307 208.813 400.223C221.491 396.223 229.466 387.888 232.822 374.76C233.017 386.963 233.002 399.507 232.913 412.512C223.099 411.854 213.359 410.735 203.331 409.391Z" fill="#CCF7C7"/>
<path d="M348.363 282.41C348.866 281.124 349.689 279.671 350.839 278.039C351.698 278.609 352.231 279.358 352.957 280.379C351.408 281.055 350.046 281.649 348.363 282.41Z" fill="#44BB59"/>
<path d="M399.355 157.958C399.245 157.528 399.409 156.936 399.833 156.161C399.939 156.584 399.783 157.19 399.355 157.958Z" fill="#EEA307"/>
<path d="M138.676 282.948C138.766 283.162 138.597 283.467 138.18 283.87C138.094 283.659 138.256 283.348 138.676 282.948Z" fill="#AAE3A2"/>
</svg>
