<svg width="1536" height="1536" viewBox="0 0 1536 1536" fill="none" xmlns="http://www.w3.org/2000/svg">
<g clip-path="url(#clip0_164_3)">
<rect x="4.83899" width="1536.48" height="1536" fill="black"/>
<path d="M1185.79 736.54C1196.44 736.54 1206.92 736.54 1217.51 736.54C1217.51 739.296 1217.51 741.699 1217.51 744.54C1204.67 744.54 1191.82 744.54 1178.84 744.54C1178.84 742.151 1178.84 739.745 1178.84 736.54C1181.08 736.54 1183.36 736.54 1185.79 736.54Z" fill="#B3E30D"/>
<path d="M1023.67 808.954C1023.57 806.964 1023.4 804.975 1023.4 802.986C1023.38 762.669 1023.39 722.352 1023.39 682.035C1023.39 680.075 1023.39 678.115 1023.39 675.802C1020.82 675.802 1018.74 675.802 1016.06 675.802C1016.06 722.65 1016.06 769.528 1016.06 816.741C1013.06 816.741 1010.65 816.741 1007.79 816.741C1007.79 769.961 1007.79 723.213 1007.79 675.503C1004.98 675.747 1002.67 675.949 999.805 676.661C999.14 677.291 998.922 677.411 998.922 677.53C998.983 721.641 999.1 765.751 999 809.862C998.995 811.849 997.13 815.435 995.934 815.52C992.059 815.798 993.226 812.186 993.227 809.984C993.248 766.188 993.355 722.391 993.389 678.595C993.389 678.335 992.62 678.074 992.21 677.813C990.396 673.588 987.278 675.613 983.934 676.667C983.318 679.043 983.151 680.946 983.15 682.849C983.134 724.799 983.181 766.75 983.017 808.7C983.008 811.066 981.294 813.425 980.373 815.788C979.623 813.502 978.227 811.219 978.22 808.93C978.089 766.481 978.145 724.031 978.046 681.581C978.041 679.732 976.921 677.886 976.32 676.038C976.32 676.038 976.134 675.998 976.009 675.607C974.989 674.668 974.092 673.643 973.198 673.647C965.897 673.676 958.594 674.067 951.3 673.931C949.599 673.899 947.929 672.275 946.244 671.383C947.909 670.59 949.57 669.111 951.238 669.105C986.351 668.969 1021.46 668.981 1056.58 669.044C1058.69 669.047 1060.79 669.709 1062.9 670.065C1062.9 671.692 1062.9 673.319 1062.9 675.457C1054.28 675.457 1045.87 675.405 1037.46 675.497C1035.55 675.517 1033.64 676.036 1031.19 676.589C1030.48 676.815 1030.31 676.745 1030.15 676.75C1030 676.754 1029.71 676.843 1029.71 676.879C1029.85 678.967 1030.15 681.053 1030.15 683.139C1030.18 724.941 1030.17 766.742 1030.16 808.544C1030.16 809.874 1030.43 811.346 1029.95 812.493C1029.53 813.496 1028.24 814.136 1027.33 814.936C1026.61 814.039 1025.56 813.242 1025.25 812.22C1024.88 810.996 1025.15 809.581 1025.15 808.249C1025.15 766.614 1025.15 724.979 1025.15 683.343C1025.15 681.643 1025.15 679.942 1025.15 678.242C1024.83 678.244 1024.51 678.247 1024.19 678.25C1024.19 680.048 1024.19 681.845 1024.19 683.643C1024.19 723.446 1024.2 763.25 1024.17 803.053C1024.17 805.02 1023.84 806.987 1023.67 808.954Z" fill="#C2F609"/>
<path d="M1023.56 809.374C1023.84 806.987 1024.17 805.02 1024.17 803.053C1024.2 763.25 1024.19 723.446 1024.19 683.643C1024.19 681.845 1024.19 680.048 1024.19 678.25C1024.51 678.247 1024.83 678.244 1025.15 678.242C1025.15 679.942 1025.15 681.643 1025.15 683.343C1025.15 724.979 1025.15 766.614 1025.15 808.249C1025.15 809.581 1024.88 810.996 1025.25 812.22C1025.56 813.242 1026.61 814.039 1027.33 814.936C1028.24 814.136 1029.53 813.496 1029.95 812.493C1030.43 811.346 1030.16 809.874 1030.16 808.544C1030.17 766.742 1030.18 724.941 1030.15 683.139C1030.15 681.053 1029.85 678.967 1029.71 676.879C1029.71 676.843 1030 676.754 1030.15 676.75C1030.31 676.746 1030.48 676.815 1030.92 676.949C1031.32 678.032 1031.52 679.018 1031.52 680.005C1031.52 724.336 1031.51 768.668 1031.32 813.751C1030.91 815.273 1030.66 816.044 1030.41 816.816C1028.11 816.458 1025.81 816.1 1023.7 815.253C1023.98 814.507 1023.92 814.287 1023.71 814.103C1023.62 812.667 1023.54 811.231 1023.56 809.374Z" fill="#C9F627"/>
<path d="M1023.56 809.374C1023.84 806.987 1024.17 805.02 1024.17 803.053C1024.2 763.25 1024.19 723.446 1024.19 683.643C1024.19 681.845 1024.19 680.048 1024.19 678.25C1024.51 678.247 1024.83 678.244 1025.15 678.242C1025.15 679.942 1025.15 681.643 1025.15 683.343C1025.15 724.979 1025.15 766.614 1025.15 808.249C1025.15 809.581 1024.88 810.996 1025.25 812.22C1025.56 813.242 1026.61 814.039 1027.33 814.936C1028.24 814.136 1029.53 813.496 1029.95 812.493C1030.43 811.346 1030.16 809.874 1030.16 808.544C1030.17 766.742 1030.18 724.941 1030.15 683.139C1030.15 681.053 1029.85 678.967 1029.71 676.879C1029.71 676.843 1030 676.754 1030.15 676.75C1030.31 676.746 1030.48 676.815 1030.92 676.949C1031.32 678.032 1031.52 679.018 1031.52 680.005C1031.52 724.336 1031.51 768.668 1031.32 813.751C1030.91 815.273 1030.66 816.044 1030.41 816.816C1028.11 816.458 1025.81 816.1 1023.7 815.253C1023.98 814.507 1023.92 814.287 1023.71 814.103C1023.62 812.667 1023.54 811.231 1023.56 809.374Z" fill="#C9F627"/>
<path d="M451.152 643.734C426.81 643.793 402.467 643.852 377.607 643.574C376.444 643.402 375.798 643.567 375.152 643.733C374.508 646.046 373.864 648.359 373.041 651.314C401.702 651.314 429.14 651.314 456.952 651.314C456.952 654.248 456.952 656.791 456.952 659.726C429.336 659.726 401.905 659.726 374.066 659.726C374.066 662.284 374.066 664.463 374.066 667.067C401.676 667.067 429.114 667.067 456.939 667.067C456.939 669.874 456.939 672.28 456.939 675.286C429.559 675.286 402.013 675.286 373.708 675.286C373.708 685.784 373.708 695.706 373.76 706.405C375.31 707.466 376.806 707.986 378.306 707.995C389.121 708.066 399.939 707.925 410.75 708.162C412.208 708.194 413.629 709.956 415.068 710.918C413.667 711.641 412.277 712.967 410.864 712.991C400.551 713.17 390.232 713.024 379.918 713.154C378.309 713.174 376.712 714.076 375.109 714.57C374.491 716.892 373.873 719.214 373.016 722.429C387.766 722.429 401.277 722.429 414.688 722.703C401.825 722.978 389.063 722.978 376.3 722.978C387.022 724.045 397.747 723.957 408.47 724.115C410.788 724.149 414.386 722.568 414.663 726.695C414.707 727.343 410.805 728.886 408.7 728.941C399.229 729.188 389.747 728.993 380.271 729.1C378.573 729.119 376.882 729.808 375.188 730.188C374.649 731.67 374.109 733.152 373.384 734.644C373.072 734.109 372.947 733.563 372.821 733.016C372.53 733.104 372.24 733.191 371.949 733.279C372.389 734.521 372.83 735.763 373.27 737.005C375.305 737.389 377.34 737.773 380.113 738.464C391.627 738.865 402.402 738.961 413.438 739.072C413.872 739.1 414.045 739.112 414.353 739.468C416.061 743.644 414.422 745.053 410.654 745.038C400.155 744.996 389.656 745.013 378.894 744.756C374.005 744.123 372.299 745.673 372.197 750.589C372.03 758.639 371.899 766.69 371.919 774.74C371.921 775.551 373.059 776.359 373.669 777.168C373.669 777.168 373.986 777.22 374.134 777.665C375.22 778.414 376.158 778.718 377.568 779.028C402.435 779.029 426.829 779.023 451.63 779.02C453.376 779.597 454.713 780.17 456.051 780.744C455.021 782.116 453.99 783.487 452.67 784.596C451.729 784.237 451.077 784.056 450.426 784.056C426.668 784.043 402.91 784.034 379.152 784.083C377.911 784.085 376.672 784.604 375.366 785.014C375.301 785.146 375.233 785.432 375.233 785.432C374.994 785.548 374.755 785.664 373.842 785.943C373.002 788.428 372.28 790.916 372.902 793.003C373.215 794.053 375.967 794.933 377.622 794.941C402.281 795.063 426.941 794.985 451.6 795.13C453.088 795.139 454.566 796.63 456.049 797.432C454.7 798.176 453.359 799.551 452 799.569C432.022 799.834 412.042 799.971 392.062 800.004C387.433 800.012 382.806 799.451 378.173 799.281C374.512 799.147 372.369 800.973 371.956 804.674C371.527 808.52 372.196 810.863 377.13 810.778C389.772 810.562 402.424 810.942 415.072 811.003C427.069 811.061 439.066 811.012 451.062 811.021C453.466 811.023 456.14 810.737 455.772 815.066C427.189 815.066 398.924 815.023 370.659 815.115C366.625 815.129 367.133 812.58 367.133 810.09C367.133 786.691 367.133 763.291 367.133 739.892C367.134 707.567 367.216 675.243 367.046 642.919C367.021 638.261 368.532 636.916 373.093 636.947C398.751 637.122 424.411 636.975 450.07 637.117C452.054 637.128 455.302 638.053 455.768 639.345C457.073 642.964 453.299 641.995 451.51 642.837C451.297 642.937 451.267 643.426 451.152 643.734Z" fill="#BFF309"/>
<path d="M1023.67 808.954C1023.57 806.964 1023.4 804.975 1023.4 802.986C1023.38 762.669 1023.39 722.352 1023.39 682.035C1023.39 680.075 1023.39 678.115 1023.39 675.802C1020.82 675.802 1018.74 675.802 1016.06 675.802C1016.06 722.65 1016.06 769.528 1016.06 816.741C1013.06 816.741 1010.65 816.741 1007.79 816.741C1007.79 769.961 1007.79 723.213 1007.79 675.503C1004.98 675.747 1002.67 675.949 999.805 676.661C999.14 677.291 998.922 677.411 998.922 677.53C998.983 721.641 999.1 765.751 999 809.862C998.995 811.849 997.13 815.435 995.934 815.52C992.059 815.798 993.226 812.186 993.227 809.984C993.248 766.188 993.355 722.391 993.389 678.595C993.389 678.335 992.62 678.074 992.21 677.813C990.396 673.588 987.278 675.613 983.934 676.667C983.318 679.043 983.151 680.946 983.15 682.849C983.134 724.799 983.181 766.75 983.017 808.7C983.008 811.066 981.294 813.425 980.373 815.788C979.623 813.502 978.227 811.219 978.22 808.93C978.089 766.481 978.145 724.031 978.046 681.581C978.041 679.732 976.921 677.886 976.32 676.038C976.32 676.038 976.134 675.998 976.009 675.607C974.989 674.668 974.092 673.643 973.198 673.647C965.897 673.676 958.594 674.067 951.3 673.931C949.599 673.899 947.929 672.275 946.244 671.383C947.909 670.59 949.57 669.111 951.238 669.105C986.351 668.969 1021.46 668.981 1056.58 669.044C1058.69 669.047 1060.79 669.709 1062.9 670.065C1062.9 671.692 1062.9 673.319 1062.9 675.457C1054.28 675.457 1045.87 675.405 1037.46 675.497C1035.55 675.517 1033.64 676.036 1031.19 676.589C1030.48 676.815 1030.31 676.745 1030.15 676.75C1030 676.754 1029.71 676.843 1029.71 676.879C1029.85 678.967 1030.15 681.053 1030.15 683.139C1030.18 724.941 1030.17 766.742 1030.16 808.544C1030.16 809.874 1030.43 811.346 1029.95 812.493C1029.53 813.496 1028.24 814.136 1027.33 814.936C1026.61 814.039 1025.56 813.242 1025.25 812.22C1024.88 810.996 1025.15 809.581 1025.15 808.249C1025.15 766.614 1025.15 724.979 1025.15 683.343C1025.15 681.643 1025.15 679.942 1025.15 678.242C1024.83 678.244 1024.51 678.247 1024.19 678.25C1024.19 680.048 1024.19 681.845 1024.19 683.643C1024.19 723.446 1024.2 763.25 1024.17 803.053C1024.17 805.02 1023.84 806.987 1023.67 808.954Z" fill="#C2F609"/>
<path d="M914.985 764.828C913.264 788.51 896.577 805.959 869.856 808.651C849.782 810.674 830.293 808.073 812.269 798.25C808.651 796.278 805.312 793.795 801.204 791.133C803.526 789.149 805.329 787.608 806.07 786.975C816.376 790.996 825.639 795.657 835.451 798.201C851.417 802.338 867.79 803.288 883.541 796.906C898.215 790.961 906.09 779.549 906.711 763.79C907.332 748.067 902.093 734.773 887.428 727.126C882.859 724.744 877.359 723.64 872.164 723.089C864.408 722.266 856.485 722.984 848.742 722.097C833.268 720.322 823.733 709.434 823.178 693.836C822.549 676.135 831.254 664.308 848.633 660.979C867.615 657.343 886.071 659.595 903.415 668.648C904.99 669.469 906.422 670.563 908.1 671.646C904.947 675.972 902.153 676.895 897.156 674.395C882.027 666.824 865.679 665.742 849.429 669.165C828.829 673.506 828.028 694.019 835.087 705.691C838.36 711.102 843.567 713.59 849.657 714.047C854.961 714.446 860.3 714.452 865.624 714.477C897.094 714.624 915.277 732.976 914.985 764.828Z" fill="#BFF011"/>
<path d="M875.055 783.455C890.128 778.576 894.608 763.698 888.619 749.843C885.741 743.184 880.144 739.566 873.005 739.004C865.547 738.416 858.026 738.65 850.56 738.133C826.056 736.435 810.505 721.434 807.591 696.926C804.853 673.903 817.563 653.228 840.069 647.122C867.56 639.665 893.82 643.523 917.773 659.714C918.699 660.34 919.477 661.186 920.747 662.301C918.566 664.034 916.671 665.54 914.781 667.042C894.589 653.138 872.328 649.534 848.849 653.133C833.644 655.463 821.889 663.576 817.42 678.838C813.008 693.905 815.284 708.233 826.71 720.061C833.878 727.482 843.093 729.83 853.017 730.168C859.836 730.4 866.703 730.113 873.47 730.816C887.663 732.291 896.666 741.494 898.905 756.078C901.114 770.47 894.913 783.266 882.722 789.021C870.597 794.744 857.783 794.113 844.976 792.51C834.001 791.136 823.53 788.176 814.153 781.283C817.26 777.358 819.755 776.044 824.944 778.568C840.747 786.257 857.606 786.867 875.055 783.455Z" fill="#BFF011"/>
<path d="M852.16 636.75C824.454 639.512 804.363 656.548 800.629 681.597C795.21 717.949 817.061 745.445 854.067 746.033C858.899 746.11 863.738 745.932 868.563 746.125C877.126 746.468 881.96 750.894 883.017 759.074C884.118 767.587 880.623 773.877 872.505 775.928C856.86 779.879 841.639 777.859 826.137 771.607C829.467 767.959 831.973 766.598 836.777 767.292C846.749 768.734 856.942 768.837 867.053 769.028C870.854 769.099 874.269 767.243 875.106 762.898C876.091 757.785 872.993 754.426 866.911 754.137C859.098 753.767 851.185 754.277 843.473 753.24C804.111 747.946 789.36 715.02 791.918 685.87C794.449 657.013 811.204 637.467 839.685 630.906C870.255 623.864 899.193 628.782 925.641 646.212C927.442 647.399 929.03 648.905 930.737 650.237C931.389 650.746 932.096 651.184 933.358 652.055C930.827 653.992 928.926 655.447 926.864 657.025C904.864 639.78 879.8 634.284 852.16 636.75Z" fill="#BFF011"/>
<path d="M920.899 726.121C921.236 726.577 921.574 727.032 921.668 727.813C922.778 731.975 924.101 735.823 925.49 739.647C930.762 754.16 930.789 768.626 925.391 783.137C924.678 785.055 924.822 787.292 924.569 789.381C924.569 789.381 924.474 789.444 924.335 789.38C924.072 789.364 923.948 789.411 923.825 789.459C923.953 789.666 924.081 789.873 924.21 790.079C915.659 807.625 901.288 818.002 882.669 822.122C851.661 828.984 822.511 824.181 795.928 806.235C793.633 804.685 791.616 802.725 789.069 800.626C791.532 798.855 793.516 797.428 795.599 795.93C815.617 812.354 838.939 817.688 863.879 816.746C883.004 816.024 900.394 810.328 912.151 793.944C925.554 775.266 926.05 754.912 916.432 734.833C907.397 715.973 890.821 707.675 870.25 707.033C864.76 706.861 859.259 707.04 853.767 706.895C845.544 706.678 840.643 702.379 839.377 694.478C838.049 686.191 841.022 679.248 848.79 677.563C857.079 675.764 865.859 676.225 875.055 676.141C877.726 677.069 879.885 677.281 881.781 678.099C885.681 679.782 889.44 681.789 893.257 683.662C893.257 683.662 893.082 683.935 892.654 683.831C891.929 684.234 891.632 684.741 891.336 685.249C891.336 685.249 891.215 685.1 890.864 685.112C888.92 684.787 887.342 684.282 885.732 684.149C882.893 683.915 880.034 683.906 877.184 683.803C876.73 683.833 876.276 683.864 875.358 683.412C866.722 683.129 858.512 682.978 850.407 683.823C848.791 683.991 846.848 687.814 846.351 690.22C845.718 693.287 845.32 697.172 850.122 698.036C850.122 698.036 850.169 698.021 850.393 698.331C853.44 699.277 856.327 700.659 859.074 700.422C871.414 699.354 883.406 700.051 894.853 705.31C898.555 707.011 902.361 708.488 906.119 710.067C906.119 710.067 906.15 710.036 906.283 710.278C906.719 710.661 907.022 710.803 907.326 710.944C907.326 710.944 907.223 710.976 907.246 711.286C910.036 713.969 912.801 716.343 915.567 718.716C915.567 718.716 915.161 718.837 915.267 719.125C917.215 721.649 919.057 723.885 920.899 726.121Z" fill="#BFF011"/>
<path d="M750.212 817.067C750.077 816.907 749.943 816.747 749.765 815.896C749.754 757.627 749.784 700.047 749.826 642.467C749.827 640.308 749.951 638.148 750.017 635.988C750.017 635.988 750.108 636.015 750.557 635.98C753.07 635.89 755.134 635.834 757.198 635.779C757.436 637.717 757.879 639.656 757.881 641.594C757.93 698.438 757.935 755.282 757.914 812.953C757.971 814.533 758.062 815.285 758.153 816.038C758.003 816.339 757.797 816.592 756.913 816.919C754.267 817.048 752.24 817.058 750.212 817.067Z" fill="#BDEE12"/>
<path d="M621.201 635.774C621.436 637.713 621.874 639.652 621.876 641.591C621.927 699.1 621.934 756.609 621.879 814.944C619.27 816.2 616.73 816.631 614.19 817.061C614.06 816.902 613.929 816.743 613.761 815.896C613.756 757.627 613.786 700.045 613.829 642.464C613.831 640.304 613.955 638.144 614.021 635.985C614.021 635.985 614.106 636.011 614.554 635.977C617.069 635.886 619.135 635.83 621.201 635.774Z" fill="#BDEE12"/>
<path d="M451.556 643.828C451.267 643.426 451.297 642.937 451.51 642.837C453.299 641.995 457.073 642.964 455.768 639.345C455.302 638.053 452.054 637.128 450.07 637.117C424.412 636.975 398.751 637.122 373.093 636.947C368.532 636.916 367.021 638.261 367.046 642.919C367.216 675.243 367.134 707.567 367.133 739.892C367.133 763.291 367.133 786.691 367.133 810.09C367.133 812.58 366.625 815.128 370.659 815.115C398.924 815.023 427.189 815.066 455.773 815.066C456.14 810.737 453.466 811.023 451.063 811.021C439.066 811.012 427.069 811.061 415.073 811.003C402.424 810.942 389.773 810.562 377.13 810.778C372.196 810.862 371.527 808.52 371.956 804.674C372.369 800.973 374.512 799.147 378.173 799.281C382.806 799.451 387.433 800.012 392.062 800.004C412.042 799.971 432.022 799.834 452 799.569C453.359 799.551 454.7 798.176 456.049 797.432C454.566 796.63 453.088 795.139 451.6 795.13C426.941 794.985 402.281 795.063 377.622 794.941C375.968 794.933 373.215 794.053 372.902 793.003C372.28 790.916 373.003 788.428 373.458 786.048C373.746 788.143 373.746 790.296 373.746 792.946C401.553 792.946 429.097 792.946 456.999 792.946C456.999 795.977 456.999 798.515 456.999 801.623C429.317 801.623 401.783 801.623 373.984 801.623C373.984 804.265 373.984 806.35 373.984 808.869C401.684 808.869 429.258 808.869 457.101 808.869C457.101 811.729 457.101 814.164 457.101 817.046C426.812 817.046 396.576 817.046 365.842 816.754C365.344 816.463 365.107 816.04 365.107 816.04C365.187 814.048 365.335 812.056 365.335 810.065C365.349 753.752 365.347 697.439 365.35 641.126C365.351 638.36 364.59 635.006 370.23 635.81C396.453 635.779 421.788 635.715 447.123 635.65C448.529 635.691 449.935 635.731 452.002 635.787C452.826 635.749 452.989 635.696 453.152 635.642C453.603 635.692 454.053 635.742 455.084 635.803C455.826 635.753 455.987 635.691 456.148 635.629C456.704 638.154 457.261 640.679 457.975 643.921C455.385 643.921 453.673 643.921 451.556 643.828Z" fill="#B8E123"/>
<path d="M701.508 917.021C701.506 924.474 701.506 931.444 701.506 938.661C699.676 938.661 698.133 938.661 696.329 938.661C696.329 916.122 696.329 893.839 696.329 871.016C697.683 870.896 699.223 870.76 701.278 870.578C702.788 882.665 704.262 894.461 705.735 906.257C706.049 906.29 706.363 906.322 706.677 906.354C708.089 894.599 709.502 882.844 710.94 870.883C712.674 870.883 714.264 870.883 716.151 870.883C716.151 893.517 716.151 915.917 716.151 938.644C714.701 938.734 713.283 938.822 711.212 938.951C711.212 930.519 711.212 922.338 711.212 914.156C710.776 914.129 710.34 914.103 709.904 914.076C709.083 921.38 708.262 928.684 707.441 935.988C706.85 936.05 706.259 936.111 705.668 936.173C703.398 927.783 703.915 918.854 701.51 910.376C701.51 912.431 701.51 914.485 701.508 917.021Z" fill="#F0F0F0"/>
<path d="M978.679 872.867C979.914 882.493 981.103 891.708 982.291 900.924C982.925 900.914 983.558 900.904 984.191 900.894C985.436 890.702 986.68 880.509 987.964 869.995C989.612 869.995 991.33 869.995 993.253 869.995C993.253 892.671 993.253 915.079 993.253 937.698C991.679 937.698 990.245 937.698 988.229 937.698C988.229 929.82 988.229 921.969 988.229 914.118C987.754 914.083 987.279 914.048 986.805 914.014C986.014 920.973 985.224 927.933 984.433 934.893C983.856 934.968 983.279 935.043 982.702 935.118C980.227 926.84 981.071 917.914 978.708 909.505C978.708 918.763 978.708 928.021 978.708 937.672C976.729 937.768 975.177 937.843 973.328 937.933C973.328 915.118 973.328 892.703 973.328 869.872C975.414 870.306 978.473 867.866 978.679 872.867ZM983.878 903.29C983.701 902.864 983.525 902.439 983.348 902.014C983.076 902.477 982.658 902.923 982.604 903.409C982.582 903.606 983.355 903.891 983.878 903.29Z" fill="#F1F1F1"/>
<path d="M966.163 651.403C998.595 651.404 1030.53 651.404 1062.81 651.404C1062.81 654.159 1062.81 656.562 1062.81 659.403C1023.68 659.403 984.52 659.403 944.979 659.403C944.979 657.014 944.979 654.609 944.979 651.403C951.822 651.403 958.743 651.403 966.163 651.403Z" fill="#B3E30D"/>
<path d="M1140.82 765.836C1140.82 733.404 1140.82 701.473 1140.82 669.192C1143.58 669.192 1145.98 669.192 1148.82 669.192C1148.82 708.316 1148.82 747.479 1148.82 787.02C1146.43 787.02 1144.03 787.02 1140.82 787.02C1140.82 780.177 1140.82 773.256 1140.82 765.836Z" fill="#B3E30D"/>
<path d="M1125.81 765.836C1125.81 733.404 1125.81 701.473 1125.81 669.192C1128.57 669.192 1130.97 669.192 1133.81 669.192C1133.81 708.316 1133.81 747.479 1133.81 787.02C1131.42 787.02 1129.02 787.02 1125.81 787.02C1125.81 780.177 1125.81 773.256 1125.81 765.836Z" fill="#B3E30D"/>
<path d="M1155.83 765.836C1155.83 733.404 1155.83 701.473 1155.83 669.192C1158.59 669.192 1160.99 669.192 1163.83 669.192C1163.83 708.316 1163.83 747.479 1163.83 787.02C1161.44 787.02 1159.03 787.02 1155.83 787.02C1155.83 780.177 1155.83 773.256 1155.83 765.836Z" fill="#B3E30D"/>
<path d="M1170.84 765.836C1170.84 733.404 1170.84 701.473 1170.84 669.192C1173.59 669.192 1176 669.192 1178.84 669.192C1178.84 708.316 1178.84 747.479 1178.84 787.02C1176.45 787.02 1174.04 787.02 1170.84 787.02C1170.84 780.177 1170.84 773.256 1170.84 765.836Z" fill="#B3E30D"/>
<path d="M1185.79 724.106C1196.44 724.106 1206.92 724.106 1217.51 724.106C1217.51 726.862 1217.51 729.265 1217.51 732.106C1204.67 732.106 1191.82 732.106 1178.84 732.106C1178.84 729.717 1178.84 727.312 1178.84 724.106C1181.08 724.106 1183.36 724.106 1185.79 724.106Z" fill="#B3E30D"/>
<path d="M1094.09 724.106C1104.74 724.106 1115.22 724.106 1125.81 724.106C1125.81 726.862 1125.81 729.265 1125.81 732.106C1112.97 732.106 1100.12 732.106 1087.14 732.106C1087.14 729.717 1087.14 727.312 1087.14 724.106C1089.39 724.106 1091.66 724.106 1094.09 724.106Z" fill="#B3E30D"/>
<path d="M1094.09 736.54C1104.74 736.54 1115.22 736.54 1125.81 736.54C1125.81 739.296 1125.81 741.699 1125.81 744.54C1112.97 744.54 1100.12 744.54 1087.14 744.54C1087.14 742.151 1087.14 739.745 1087.14 736.54C1089.39 736.54 1091.66 736.54 1094.09 736.54Z" fill="#B3E30D"/>
<path d="M1185.79 711.673C1196.44 711.673 1206.92 711.673 1217.51 711.673C1217.51 714.429 1217.51 716.831 1217.51 719.672C1204.67 719.672 1191.82 719.672 1178.84 719.672C1178.84 717.283 1178.84 714.878 1178.84 711.673C1181.08 711.673 1183.36 711.673 1185.79 711.673Z" fill="#B3E30D"/>
<path d="M1094.09 711.672C1104.74 711.673 1115.22 711.673 1125.81 711.673C1125.81 714.428 1125.81 716.831 1125.81 719.672C1112.97 719.672 1100.12 719.672 1087.14 719.672C1087.14 717.283 1087.14 714.878 1087.14 711.672C1089.39 711.672 1091.66 711.672 1094.09 711.672Z" fill="#B3E30D"/>
<path d="M949.581 635.824C987.478 635.825 1024.92 635.825 1062.74 635.825C1062.74 638.504 1062.74 640.886 1062.74 643.621C1023.58 643.621 984.391 643.621 944.921 643.621C944.921 641.151 944.921 638.877 944.921 636.113C946.294 636.019 947.712 635.921 949.581 635.824Z" fill="#BFF011"/>
<path d="M665.24 873.605C666.503 872.108 667.77 871.028 669.036 869.947C669.42 870.28 669.804 870.613 670.187 870.946C670.187 893.485 670.187 916.024 670.187 938.717C668.819 938.717 667.544 938.717 666.032 938.717C663.831 927.771 661.66 916.977 659.489 906.182C659.179 906.22 658.868 906.258 658.557 906.295C658.557 916.989 658.557 927.682 658.557 938.679C656.77 938.771 655.354 938.844 653.485 938.94C653.485 916.28 653.485 893.888 653.485 871.044C654.534 870.953 655.921 870.832 657.525 870.693C659.682 881.658 661.781 892.331 663.881 903.005C664.335 902.974 664.79 902.943 665.245 902.913C665.245 893.283 665.245 883.653 665.24 873.605Z" fill="#F4F4F4"/>
<path d="M1032.43 873.386C1032.43 894.973 1032.43 916.111 1032.43 937.495C1029.5 938.418 1027.95 938.072 1027.36 934.594C1025.98 926.418 1024.19 918.311 1022.55 910.18C1022.2 908.465 1021.79 906.765 1020.45 905.198C1020.45 915.962 1020.45 926.725 1020.45 937.712C1018.66 937.712 1017.23 937.712 1015.43 937.712C1015.43 915.224 1015.43 892.816 1015.43 870.224C1018.74 868.656 1019.83 870.301 1020.41 873.539C1021.98 882.373 1023.77 891.167 1025.5 899.973C1025.64 900.694 1025.93 901.385 1026.94 902.009C1026.94 891.492 1026.94 880.974 1026.94 870.103C1029.74 869.922 1032.78 867.971 1032.43 873.386Z" fill="#F4F4F4"/>
<path d="M476.001 880.968C476.002 877.822 476.002 875.163 476.002 871.905C477.735 871.787 479.457 871.669 481.398 871.537C481.622 872.593 481.923 873.363 481.928 874.135C482.033 893.29 482.152 912.446 482.16 931.601C482.162 938.013 479.212 941.015 473.632 940.729C468.767 940.48 466.356 937.71 466.343 931.986C466.298 912.167 466.326 892.348 466.326 872.09C467.937 872.09 469.789 872.09 472.254 872.09C472.254 888.61 472.252 905.053 472.256 921.497C472.257 924.995 472.101 928.507 472.381 931.983C472.491 933.357 473.591 934.651 474.241 935.982C474.873 934.63 476.048 933.281 476.056 931.925C476.141 916.268 476.05 900.61 476.006 884.952C476.003 883.786 476.003 882.619 476.001 880.968Z" fill="#F0F0F0"/>
<path d="M853.037 888.852C853.038 892.466 853.038 895.593 853.038 898.993C850.937 898.993 849.219 898.993 847.296 898.993C846.515 890.465 847.925 881.964 846.292 873.771C845.576 873.748 844.86 873.725 844.145 873.702C843.778 875.302 843.094 876.903 843.095 878.504C843.103 895.978 843.178 913.452 843.385 930.924C843.4 932.273 844.547 933.608 845.168 934.95C845.851 933.492 847.102 932.042 847.123 930.575C847.247 922.22 847.076 913.861 847.002 905.076C848.045 905.076 850.25 905.076 853.001 905.076C853.001 914.559 853.237 924.145 852.89 933.711C852.743 937.754 848.955 940.057 844.499 939.646C840.38 939.267 837.427 937.351 837.392 932.828C837.247 914.181 837.136 895.532 837.183 876.884C837.195 871.926 840.311 869.146 845.049 869.124C849.726 869.103 852.647 871.878 852.899 876.878C853.091 880.699 853.001 884.535 853.037 888.852Z" fill="#F1F1F1"/>
<path d="M788.116 889.895C788.116 883.413 788.116 877.43 788.116 871.102C792.406 871.102 796.672 870.775 800.862 871.202C804.456 871.567 805.481 874.397 805.477 877.787C805.453 895.91 805.457 914.033 805.567 932.155C805.593 936.328 803.479 938.373 799.669 938.659C796.048 938.931 792.39 938.717 788.117 938.717C788.117 922.556 788.117 906.475 788.116 889.895ZM794.167 907.395C794.167 916.307 794.167 925.219 794.167 934.659C796.498 934.301 798.015 934.068 799.192 933.887C799.192 914.127 799.192 894.903 799.192 875.403C797.359 875.403 795.943 875.403 794.167 875.403C794.167 885.841 794.167 896.118 794.167 907.395Z" fill="#F1F1F1"/>
<path d="M918.103 877.42C919.078 871.303 922.509 868.542 928.009 869.017C933.102 869.458 935.409 872.217 935.432 878.231C935.498 895.692 935.526 913.153 935.5 930.613C935.492 936.016 932.5 938.817 927.093 938.772C921.757 938.728 918.446 935.814 918.4 930.732C918.239 913.107 918.19 895.48 918.103 877.42ZM929.555 883.47C929.555 881.971 929.649 880.465 929.531 878.975C929.363 876.85 930.432 873.54 926.792 873.955C925.714 874.078 924.257 877.403 924.239 879.272C924.084 895.756 924.194 912.243 924.284 928.729C924.296 930.908 923.556 934.069 927.155 933.703C928.124 933.604 929.48 930.598 929.499 928.913C929.667 914.094 929.572 899.273 929.555 883.47Z" fill="#EEEEEE"/>
<path d="M617.241 906.893C617.241 894.751 617.241 883.109 617.241 871.071C621.411 871.071 625.516 870.818 629.572 871.151C632.835 871.419 634.438 873.684 634.442 877.011C634.462 895.66 634.49 914.309 634.53 932.958C634.538 936.795 632.042 938.315 628.826 938.59C625.204 938.899 621.536 938.661 617.242 938.661C617.242 928.259 617.242 917.826 617.241 906.893ZM623.245 929.16C623.316 935.213 623.316 935.213 628.558 933.496C628.558 915.257 628.544 896.965 628.57 878.673C628.576 874.376 626.061 874.974 623.244 875.574C623.244 893.295 623.244 910.752 623.245 929.16Z" fill="#F1F1F1"/>
<path d="M745.599 929.66C745.599 922.191 745.599 915.196 745.599 907.858C747.46 907.858 749.193 907.858 751.504 907.858C751.504 916.316 751.707 924.753 751.418 933.173C751.274 937.355 747.23 939.958 742.313 939.792C737.59 939.632 734.443 937.036 734.394 932.576C734.196 914.248 734.091 895.918 734.156 877.59C734.174 872.44 737.653 869.769 743.19 869.903C748.433 870.03 751.248 872.606 751.377 877.903C751.543 884.724 751.418 891.552 751.418 898.95C749.654 899.072 747.941 899.191 745.545 899.357C745.545 892.918 745.653 886.824 745.488 880.738C745.428 878.527 746.862 874.933 742.992 874.827C739.226 874.725 740.119 878.227 740.12 880.547C740.125 897.044 740.141 913.542 740.4 930.036C740.427 931.707 742.085 933.353 742.986 935.01C743.857 933.385 744.728 931.76 745.599 929.66Z" fill="#F0F0F0"/>
<path d="M452.554 914.471C450.167 904.875 447.69 895.3 445.459 885.668C444.944 883.445 445.181 881.026 445.229 878.7C445.33 873.757 447.717 871.257 452.451 870.979C457.348 870.692 460.698 873.255 460.903 878.007C461.153 883.8 460.963 889.611 460.963 895.673C458.964 895.673 457.207 895.673 454.939 895.673C454.939 890.166 455.049 884.708 454.852 879.261C454.809 878.059 453.673 876.898 453.04 875.718C452.434 876.887 451.148 878.176 451.329 879.208C452.953 888.47 454.895 897.676 456.624 906.92C458.204 915.365 460.005 923.794 460.998 932.312C461.628 937.711 458.481 940.602 453.462 940.742C448.29 940.885 445.408 937.942 445.339 932.29C445.275 926.984 445.326 921.676 445.326 915.938C446.988 915.833 448.579 915.732 450.693 916.019C451.246 921.548 451.154 926.692 451.387 931.822C451.45 933.22 452.491 934.573 453.083 935.946C453.781 934.653 455.182 933.288 455.057 932.08C454.446 926.187 453.428 920.336 452.554 914.471Z" fill="#EEEEEE"/>
<path d="M1044.53 912.447C1042.37 904.986 1039.87 897.6 1038.18 890.034C1037.18 885.549 1037.22 880.78 1037.21 876.138C1037.2 871.723 1040.01 869.221 1044.52 868.96C1049.23 868.688 1052.53 871.06 1052.76 875.583C1053.07 881.536 1052.84 887.517 1052.84 893.715C1050.94 893.715 1049.18 893.715 1046.98 893.715C1046.98 888.663 1047.14 883.692 1046.89 878.742C1046.8 877.037 1045.69 875.384 1045.04 873.707C1044.42 875.371 1043.03 877.168 1043.3 878.677C1044.8 887.299 1046.81 895.833 1048.44 904.435C1050.11 913.188 1051.87 921.945 1052.95 930.778C1053.55 935.714 1050.29 938.589 1045.51 938.715C1040.46 938.846 1037.49 936.045 1037.4 930.828C1037.3 925.356 1037.38 919.881 1037.38 913.907C1038.99 913.817 1040.58 913.728 1042.66 914.041C1043.21 919.769 1043.14 925.099 1043.38 930.417C1043.43 931.613 1044.52 932.764 1045.14 933.935C1045.81 932.817 1047.17 931.626 1047.06 930.592C1046.4 924.523 1045.41 918.492 1044.53 912.447Z" fill="#F0F0F0"/>
<path d="M948.528 912.447C946.368 904.985 943.87 897.6 942.178 890.033C941.175 885.549 941.215 880.779 941.207 876.137C941.199 871.722 944.012 869.22 948.523 868.96C953.235 868.689 956.536 871.06 956.766 875.581C957.069 881.535 956.841 887.516 956.841 893.714C954.941 893.714 953.176 893.714 950.978 893.714C950.978 888.664 951.14 883.693 950.889 878.743C950.803 877.038 949.689 875.384 949.044 873.707C948.419 875.371 947.032 877.168 947.296 878.676C948.804 887.299 950.808 895.833 952.444 904.435C954.109 913.188 955.873 921.945 956.95 930.779C957.551 935.714 954.291 938.59 949.509 938.715C944.464 938.846 941.491 936.043 941.398 930.829C941.299 925.357 941.376 919.882 941.376 913.907C942.991 913.817 944.577 913.728 946.662 914.041C947.207 919.769 947.144 925.099 947.378 930.417C947.431 931.613 948.523 932.764 949.137 933.936C949.813 932.817 951.167 931.626 951.056 930.592C950.402 924.523 949.407 918.492 948.528 912.447Z" fill="#F0F0F0"/>
<path d="M553.508 913.474C552.566 910.66 551.283 907.91 550.746 905.021C549.055 895.928 547.288 886.824 546.272 877.644C545.73 872.749 549.182 869.949 554.01 869.935C558.945 869.92 561.693 872.391 561.878 877.544C562.081 883.173 561.924 888.815 561.924 894.692C559.912 894.692 558.167 894.692 555.994 894.692C555.994 889.237 556.128 883.934 555.9 878.647C555.843 877.32 554.622 876.044 553.935 874.745C553.341 876.101 552.054 877.574 552.261 878.793C553.729 887.412 555.51 895.978 557.176 904.564C558.842 913.152 560.902 921.691 562.006 930.351C562.793 936.521 559.74 939.61 554.447 939.71C549.081 939.811 546.403 936.892 546.35 930.775C546.306 925.637 546.341 920.5 546.341 914.919C547.991 914.811 549.579 914.706 551.672 915.016C552.225 920.906 552.186 926.385 552.396 931.855C552.435 932.894 553.461 933.895 554.032 934.913C554.701 933.959 556.026 932.936 555.935 932.061C555.288 925.849 554.352 919.666 553.508 913.474Z" fill="#EEEEEE"/>
<path d="M886.961 898.128C891.055 908.947 894.424 919.505 894.118 930.879C893.961 936.724 891.452 939.638 886.331 939.709C881.173 939.781 878.414 936.869 878.35 931.135C878.291 925.833 878.338 920.53 878.338 914.936C880.259 914.936 881.98 914.936 884.267 914.936C884.267 920.405 884.14 925.694 884.355 930.97C884.41 932.318 885.547 933.621 886.186 934.945C886.849 933.646 888.236 932.235 888.056 931.064C886.879 923.394 886.297 915.445 883.733 908.221C880.221 898.327 878.201 888.4 878.197 877.99C878.195 872.885 880.842 870.122 885.696 869.96C890.604 869.795 893.697 872.356 893.897 877.293C894.126 882.931 893.95 888.586 893.95 894.693C892.087 894.79 890.365 894.88 887.973 895.005C887.973 889.377 888.095 884.096 887.891 878.828C887.837 877.438 886.775 876.087 886.176 874.717C885.51 876.156 884.162 877.663 884.297 879.023C884.922 885.284 885.96 891.505 886.961 898.128Z" fill="#F1F1F1"/>
<path d="M695.151 808.899C696.225 808.937 697.299 808.975 699.002 809.046C699.799 809.08 699.966 809.082 700.133 809.084C700.133 809.084 700.161 809.042 700.262 809.49C700.541 811.995 700.72 814.051 700.898 816.107C700.777 816.276 700.655 816.446 699.874 816.838C676.205 817.1 653.195 817.139 630.186 817.179C630.186 817.179 629.858 816.946 629.653 816.601C629.356 815.852 629.264 815.447 629.172 815.042C629.231 805.569 629.34 796.096 629.341 786.623C629.348 737.741 629.328 688.859 629.326 639.261C629.279 638.377 629.222 638.208 629.166 638.039C629.356 637.444 629.546 636.849 630.369 636.057C633.064 635.86 635.126 635.86 637.187 635.86C637.376 636.301 637.564 636.742 637.683 637.8C637.574 646.223 637.501 654.03 637.499 661.836C637.487 698.716 637.494 735.596 637.499 772.476C637.499 775.082 636.9 778.12 641.132 778.17C641.117 778.64 641.109 778.828 640.706 779.024C636.748 779.441 635.463 777.797 635.938 774.356C636.165 772.718 636.171 771.04 636.171 769.38C636.182 727.57 636.18 685.76 636.176 643.951C636.176 642.619 636.433 641.183 636.014 639.992C635.725 639.171 634.472 638.19 633.654 638.195C632.837 638.199 631.552 639.2 631.315 640.011C630.911 641.398 631.145 642.977 631.145 644.476C631.138 691.782 631.135 739.089 631.133 786.396C631.132 794.558 631.212 802.721 631.1 810.881C631.062 813.708 631.725 815.14 634.959 815.123C654.947 815.019 674.936 815.11 694.924 814.979C696.202 814.97 697.471 813.636 698.745 812.919C697.554 812.286 696.362 811.102 695.172 811.104C676.87 811.139 658.567 811.364 640.265 811.37C639.369 811.371 638.472 809.768 637.971 808.963C639.961 808.972 641.554 808.93 643.148 808.888C646.519 808.93 649.891 808.971 654.18 809.039C668.448 809.01 681.8 808.954 695.151 808.899Z" fill="#B8E123"/>
<path d="M765.112 815.056C765.184 813.064 765.319 811.071 765.319 809.078C765.33 753.45 765.328 697.821 765.328 642.193C765.328 640.232 765.328 638.271 765.328 636.028C768.217 636.028 770.638 636.028 773.386 636.028C773.386 696.346 773.386 756.533 773.386 817.047C770.915 817.047 768.606 817.047 765.835 816.675C765.286 815.887 765.199 815.472 765.112 815.056ZM767.131 689.544C767.128 729.862 767.1 770.179 767.224 810.496C767.229 812.007 768.725 813.513 769.525 815.021C770.413 813.604 772.074 812.187 772.077 810.767C772.207 754.623 772.207 698.478 772.076 642.334C772.073 640.906 770.428 639.483 769.549 638.057C768.741 639.559 767.249 641.053 767.232 642.563C767.06 657.889 767.13 673.217 767.131 689.544Z" fill="#B4DC1E"/>
<path d="M358.277 816.043C355.514 816.547 352.752 817.052 349.673 817.613C349.673 756.609 349.673 696.563 349.673 636.096C352.245 636.096 354.784 636.096 358.102 636.096C358.102 695.405 358.102 754.757 358.095 814.829C358.151 815.714 358.214 815.878 358.277 816.043ZM351.044 651.557C351.043 704.033 351.007 756.51 351.159 808.986C351.165 811.249 353.028 815.487 353.811 815.437C357.923 815.174 356.238 811.47 356.242 809.186C356.342 754.211 356.323 699.236 356.325 644.26C356.325 643.261 356.609 642.141 356.253 641.288C355.634 639.807 354.619 638.491 353.77 637.105C352.863 638.426 351.353 639.669 351.172 641.083C350.773 644.198 351.045 647.398 351.044 651.557Z" fill="#9CC01D"/>
<path d="M491.657 879.77C491.884 877.014 492.098 874.708 492.347 872.029C494.293 872.029 496.16 872.029 498.301 872.029C500.23 894.478 502.148 916.787 504.114 939.66C502.236 939.76 500.526 939.851 498.232 939.974C497.905 935.038 497.592 930.323 497.281 925.624C494.072 925.679 494.072 925.679 492.589 939.706C490.939 939.796 489.211 939.89 486.875 940.017C488.484 919.827 490.063 900.023 491.657 879.77ZM496.695 915.16C496.249 910.298 495.802 905.436 495.356 900.575C495.18 900.594 495.005 900.614 494.829 900.634C494.829 907.236 494.829 913.839 494.829 920.442C495.379 920.451 495.929 920.46 496.479 920.469C496.561 918.997 496.643 917.525 496.695 915.16Z" fill="#F1F1F1"/>
<path d="M601.552 932.407C601.694 934.652 601.824 936.458 601.977 938.593C600.028 938.593 598.309 938.593 596.67 938.593C593.96 934.264 598.179 927.778 591.838 923.048C591.425 929.129 591.114 933.718 590.781 938.616C588.898 938.616 587.169 938.616 584.908 938.616C586.708 916.096 588.503 893.634 590.317 870.938C592.372 870.938 594.125 870.938 596.293 870.938C598.045 891.318 599.793 911.643 601.552 932.407ZM594.38 905.894C593.926 903.525 593.472 901.156 592.851 897.919C592.536 904.802 592.189 910.823 592.062 916.849C592.043 917.739 593.059 918.651 593.597 919.553C593.884 919.382 594.171 919.212 594.459 919.041C594.459 914.961 594.459 910.881 594.38 905.894Z" fill="#F1F1F1"/>
<path d="M859.935 899.96C860.763 890.072 861.546 880.65 862.352 870.963C864.324 870.963 866.074 870.963 868.288 870.963C870.225 893.398 872.162 915.84 874.127 938.614C872.004 938.614 870.273 938.614 868.719 938.614C865.908 934.264 870.246 927.743 863.827 923.092C863.419 929.15 863.11 933.748 862.782 938.635C860.88 938.635 859.144 938.635 856.947 938.635C857.933 925.839 858.912 913.132 859.935 899.96ZM864.073 918.6C866.456 920.402 866.916 919.055 866.762 916.909C866.332 910.913 865.857 904.921 865.4 898.927C864.921 898.942 864.442 898.957 863.963 898.972C863.963 905.247 863.963 911.521 864.073 918.6Z" fill="#F1F1F1"/>
<path d="M689.456 906.764C690.344 917.604 691.202 927.981 692.085 938.651C689.898 938.651 688.163 938.651 686.511 938.651C685.796 933.809 685.135 929.158 684.325 924.534C684.294 924.356 682.816 924.431 681.777 924.376C681.422 929.121 681.077 933.736 680.711 938.641C678.871 938.641 677.14 938.641 674.889 938.641C676.688 916.215 678.487 893.781 680.313 871.019C682.387 871.019 684.262 871.019 686.257 871.019C687.319 882.843 688.373 894.572 689.456 906.764ZM682.586 900.494C682.346 905.973 682.038 911.451 681.934 916.934C681.918 917.803 682.816 918.689 683.292 919.568C683.819 918.737 684.831 917.887 684.798 917.079C684.467 908.914 683.965 900.756 683.51 892.596C683.34 892.613 683.17 892.63 682.999 892.647C682.875 894.949 682.75 897.25 682.586 900.494Z" fill="#F0F0F0"/>
<path d="M1058.63 928.577C1060.2 908.782 1061.75 889.443 1063.32 869.923C1065.43 869.923 1067.21 869.923 1069.31 869.923C1071.24 892.435 1073.17 914.863 1075.12 937.62C1073.05 937.62 1071.31 937.62 1069.13 937.62C1068.94 933.811 1068.9 930.008 1068.45 926.255C1068.33 925.206 1066.97 924.304 1066.18 923.335C1065.61 924.322 1064.63 925.267 1064.52 926.303C1064.14 929.93 1064.05 933.588 1063.83 937.689C1061.95 937.794 1060.22 937.89 1057.98 938.014C1058.2 934.819 1058.41 931.926 1058.63 928.577ZM1065.18 910.699C1065.75 913.258 1063.23 916.615 1068.07 918.261C1067.54 909.355 1067.01 900.448 1066.48 891.541C1066.07 891.557 1065.66 891.574 1065.25 891.59C1065.25 897.661 1065.25 903.732 1065.18 910.699Z" fill="#F0F0F0"/>
<path d="M769.989 902.225C771.063 914.588 772.06 926.496 773.08 938.671C770.95 938.671 769.21 938.671 767.91 938.671C764.823 934.197 769.434 927.586 762.849 923.239C762.409 929.133 762.064 933.757 761.698 938.652C759.841 938.652 758.109 938.652 755.902 938.652C757.715 916.027 759.516 893.544 761.33 870.896C763.5 870.896 765.263 870.896 767.294 870.896C768.175 881.275 769.044 891.522 769.989 902.225ZM765.511 906.443C765.042 901.45 764.572 896.458 764.128 891.739C763.713 899.834 763.227 908.225 762.933 916.622C762.9 917.558 763.963 918.532 764.517 919.488C764.965 918.439 765.762 917.399 765.793 916.337C765.881 913.37 765.651 910.393 765.511 906.443Z" fill="#F1F1F1"/>
<path d="M478.197 738.381C505.846 738.307 533.495 738.232 561.629 738.668C562.873 743.557 561.509 745.242 556.618 745.188C532.674 744.924 508.725 745.072 484.778 745.065C478.19 745.063 478.19 745.048 478.197 738.381Z" fill="#C2F609"/>
<path d="M1005.63 904.427C1005.33 914.227 1005.33 923.681 1005.33 933.138C1007.83 933.986 1012.16 932.381 1010.48 937.692C1006.96 937.692 1003.36 937.692 999.427 937.692C999.427 915.26 999.427 892.843 999.427 870.072C1002.81 870.072 1006.39 870.072 1010.33 870.072C1010.41 871.069 1010.51 872.29 1010.63 873.836C1008.8 874.046 1007.23 874.227 1005.39 874.439C1005.39 882.634 1005.39 890.694 1005.39 898.843C1007.47 900.009 1012.53 898.13 1010.26 903.698C1008.84 903.823 1007.38 903.952 1005.63 904.427Z" fill="#F1F1F1"/>
<path d="M811.197 897.894C811.194 888.757 811.194 880.12 811.194 871.094C814.866 871.094 818.566 871.094 822.425 871.094C822.425 872.253 822.425 873.523 822.425 874.99C820.778 875.066 819.33 875.133 817.487 875.218C817.487 883.555 817.487 891.733 817.487 899.938C819.593 901.017 824.234 899.076 822.371 904.621C821.01 904.765 819.43 904.931 817.518 905.133C817.518 914.666 817.518 924.235 817.518 933.926C819.091 935.484 824.704 932.78 822.431 938.686C818.937 938.686 815.348 938.686 811.2 938.686C811.2 925.245 811.2 911.819 811.197 897.894Z" fill="#F1F1F1"/>
<path d="M742.12 696.044C742.12 736.49 742.12 776.437 742.12 816.744C739.402 816.744 736.993 816.744 734.262 816.744C734.262 756.654 734.262 696.468 734.262 636.048C736.81 636.048 739.239 636.048 742.12 636.048C742.12 655.981 742.12 675.763 742.12 696.044ZM740.206 644.857C740.316 643.37 740.701 641.834 740.45 640.411C740.245 639.253 739.276 638.23 738.646 637.147C737.636 638.072 736.004 638.85 735.744 639.952C735.186 642.318 735.214 644.85 735.213 647.313C735.189 700.93 735.18 754.547 735.233 808.164C735.236 810.931 734.06 814.407 738.206 815.625C738.874 813.128 740.121 810.632 740.126 808.134C740.236 754.017 740.208 699.901 740.206 644.857Z" fill="#C0E735"/>
<path d="M334.02 721.044C334.02 692.442 334.02 664.339 334.02 636.035C336.85 636.035 339.275 636.035 341.911 636.035C341.911 696.311 341.911 756.369 341.911 816.767C339.359 816.767 336.946 816.767 334.02 816.767C334.02 785.059 334.02 753.302 334.02 721.044ZM335.198 765.544C335.196 779.861 335.193 794.178 335.197 808.496C335.198 809.827 334.899 811.299 335.369 812.449C335.868 813.672 337.116 814.589 338.037 815.64C338.755 814.526 339.92 813.479 340.095 812.286C340.431 810.004 340.203 807.639 340.209 805.308C340.356 750.221 340.515 695.135 340.55 640.048C340.551 639.075 339.071 638.1 338.282 637.126C337.382 638.015 335.826 638.819 335.7 639.806C335.264 643.228 335.217 646.713 335.214 650.173C335.188 688.297 335.198 726.42 335.198 765.544Z" fill="#C0E735"/>
<path d="M518.321 927.854C518.32 908.715 518.32 890.07 518.32 870.913C519.896 870.841 521.639 870.76 524.08 870.648C524.08 891.944 524.08 912.969 524.08 933.634C526.639 935.137 531.323 933.25 529.44 938.661C525.966 938.661 522.383 938.661 518.321 938.661C518.321 935.244 518.321 931.796 518.321 927.854Z" fill="#F0F0F0"/>
<path d="M1079.14 884.902C1079.14 879.75 1079.14 875.096 1079.14 869.957C1080.94 869.875 1082.69 869.794 1085.07 869.685C1085.07 891.02 1085.07 912.076 1085.07 932.99C1087.74 934.057 1092.18 932.234 1090.5 937.653C1087.01 937.653 1083.43 937.653 1079.14 937.653C1079.14 920.26 1079.14 902.83 1079.14 884.902Z" fill="#F1F1F1"/>
<path d="M914.365 874.917C912.687 875.085 911.386 875.085 909.719 875.085C909.719 896.525 909.719 917.549 909.719 938.741C907.717 938.741 906.104 938.741 903.916 938.741C903.916 917.706 903.916 896.707 903.916 876.181C901.682 874.147 896.293 876.899 898.223 870.963C903.732 870.963 909.303 870.963 915.367 870.963C915.145 872.306 914.945 873.527 914.365 874.917Z" fill="#F4F4F4"/>
<path d="M539.843 923.888C539.843 929.03 539.843 933.674 539.843 938.623C537.93 938.623 536.192 938.623 534.074 938.623C534.074 916.233 534.074 893.837 534.074 870.907C535.532 870.828 537.274 870.733 539.843 870.592C539.843 888.32 539.843 905.855 539.843 923.888Z" fill="#EEEEEE"/>
<path d="M570.664 890.897C570.664 885.447 570.664 880.497 570.664 875.359C568.617 875.168 567.003 875.017 565.267 874.855C564.593 872.37 564.377 870.583 567.888 870.721C572.519 870.903 577.164 870.766 582.057 870.766C582.057 872.25 582.057 873.486 582.057 874.886C580.215 875.018 578.61 875.133 576.771 875.264C576.771 896.421 576.771 917.324 576.771 938.696C574.816 938.782 573.091 938.858 570.664 938.964C570.664 922.898 570.664 907.147 570.664 890.897Z" fill="#F4F4F4"/>
<path d="M726.296 938.896C724.703 938.873 723.549 938.821 722.05 938.753C722.05 916.228 722.05 893.809 722.05 870.972C723.553 870.863 725.291 870.737 727.741 870.56C727.741 878.727 727.719 886.64 727.746 894.553C727.794 908.204 727.9 921.855 727.884 935.505C727.882 936.626 727.136 937.747 726.296 938.896Z" fill="#F0F0F0"/>
<path d="M646.76 908.895C646.761 919.021 646.761 928.646 646.761 938.597C644.967 938.597 643.242 938.597 641.1 938.597C641.1 916.241 641.1 893.868 641.1 870.995C642.621 870.862 644.356 870.71 646.76 870.5C646.76 883.236 646.76 895.816 646.76 908.895Z" fill="#F0F0F0"/>
<path d="M976.274 676.503C976.921 677.886 978.041 679.732 978.045 681.581C978.145 724.031 978.088 766.481 978.22 808.93C978.227 811.218 979.623 813.502 980.373 815.788C981.293 813.425 983.008 811.066 983.017 808.7C983.181 766.75 983.134 724.799 983.15 682.848C983.15 680.946 983.318 679.043 983.728 677.044C984.124 686.105 984.26 695.264 984.266 704.422C984.291 740.083 984.275 775.745 984.274 811.406C984.274 813.056 984.274 814.706 984.274 816.732C981.642 816.732 979.249 816.732 976.228 816.732C976.228 770.159 976.228 723.564 976.274 676.503Z" fill="#C0E735"/>
<path d="M598.022 737.044C598.022 703.117 598.022 669.69 598.022 636.058C600.857 636.058 603.284 636.058 605.916 636.058C605.916 696.342 605.916 756.388 605.916 816.772C603.356 816.772 600.943 816.772 598.022 816.772C598.022 790.393 598.022 763.968 598.022 737.044ZM605.121 793.544C605.121 763.078 605.121 732.613 605.121 702.147C605.121 682.004 605.189 661.859 604.988 641.717C604.973 640.178 603.053 638.658 602.018 637.129C601.075 638.591 599.453 639.993 599.319 641.526C598.943 645.822 599.177 650.172 599.177 654.5C599.172 706.441 599.161 758.382 599.191 810.323C599.193 812.657 598.404 816.084 602.273 815.65C603.399 815.523 604.861 812.366 604.989 810.517C605.357 805.215 605.12 799.871 605.121 793.544Z" fill="#BFE343"/>
<path d="M590.27 735.044C590.27 762.494 590.27 789.445 590.27 816.748C587.615 816.748 585.221 816.748 582.5 816.748C582.5 756.712 582.5 696.676 582.5 636.226C584.848 636.226 587.371 636.226 590.27 636.226C590.27 669.011 590.27 701.777 590.27 735.044ZM583.2 655.546C583.199 706.357 583.195 757.168 583.209 807.979C583.21 809.802 583.033 811.756 583.629 813.4C584.013 814.46 585.59 815.522 586.762 815.69C587.405 815.783 588.654 814.142 589.015 813.074C589.42 811.874 589.143 810.44 589.143 809.108C589.145 764.127 589.144 719.147 589.143 674.167C589.143 663.171 589.248 652.174 588.997 641.184C588.966 639.809 587.042 638.477 585.995 637.125C585.072 638.434 583.458 639.69 583.351 641.063C583.004 645.534 583.208 650.049 583.2 655.546Z" fill="#BFE343"/>
<path d="M326.27 660.044C326.27 712.502 326.27 764.459 326.27 816.759C323.596 816.759 321.202 816.759 318.489 816.759C318.489 756.67 318.489 696.616 318.489 636.198C320.933 636.198 323.315 636.198 326.27 636.198C326.27 643.983 326.27 651.763 326.27 660.044ZM325.145 716.544C325.143 692.224 325.143 667.903 325.135 643.583C325.135 642.252 325.414 640.786 324.949 639.63C324.542 638.616 323.154 637.194 322.406 637.308C321.273 637.481 319.93 638.64 319.399 639.731C318.87 640.819 319.208 642.341 319.208 643.672C319.202 698.809 319.196 753.946 319.22 809.083C319.221 810.724 319.282 812.457 319.82 813.968C320.118 814.804 321.598 815.898 322.307 815.748C323.331 815.531 324.581 814.446 324.93 813.45C325.402 812.105 325.139 810.492 325.139 808.995C325.145 778.511 325.145 748.027 325.145 716.544Z" fill="#BFE343"/>
<path d="M726.27 794.044C726.27 801.847 726.27 809.151 726.27 816.776C723.561 816.776 721.167 816.776 718.473 816.776C718.473 756.632 718.473 696.578 718.473 636.18C720.968 636.18 723.353 636.18 726.27 636.18C726.27 688.682 726.27 741.113 726.27 794.044ZM719.203 672.544C719.202 718.352 719.162 764.161 719.327 809.969C719.334 811.949 721.083 815.508 722.25 815.606C726.106 815.93 725.096 812.376 725.098 810.107C725.146 754.304 725.143 698.5 725.11 642.697C725.109 640.363 725.91 636.927 722.024 637.388C720.897 637.522 719.387 640.729 719.336 642.563C719.065 652.217 719.206 661.882 719.203 672.544Z" fill="#BFE343"/>
<path d="M522.163 730.681C506.907 730.681 492.152 730.681 477.132 730.681C477.132 727.734 477.132 725.314 477.132 722.578C505.934 722.578 534.595 722.578 563.594 722.578C563.594 725.222 563.594 727.615 563.594 730.681C549.829 730.681 536.246 730.681 522.163 730.681ZM485.83 729.072C509.127 729.072 532.424 729.073 555.721 729.071C557.052 729.071 558.449 729.293 559.692 728.956C560.586 728.714 561.864 727.749 561.906 727.044C561.957 726.164 561.115 724.862 560.291 724.4C559.371 723.886 558.038 724.027 556.885 724.026C532.424 724.009 507.961 723.963 483.501 724.119C481.769 724.13 480.047 725.663 478.321 726.489C480.01 727.349 481.681 728.248 483.401 729.042C483.813 729.232 484.386 729.072 485.83 729.072Z" fill="#B4DC1E"/>
<path d="M492.171 706.579C516.24 706.579 539.809 706.579 563.61 706.579C563.61 709.555 563.61 711.948 563.61 714.629C534.738 714.629 506.197 714.629 477.257 714.629C477.257 712.141 477.257 709.615 477.257 706.579C482.12 706.579 486.896 706.579 492.171 706.579ZM531.663 708.029C515.37 708.029 499.077 707.958 482.786 708.147C481.265 708.164 479.763 709.819 478.251 710.714C479.743 711.508 481.23 712.986 482.726 712.994C507.663 713.137 532.601 713.136 557.539 712.996C559.057 712.987 560.566 711.539 562.08 710.761C560.587 709.852 559.117 708.203 557.597 708.156C549.293 707.897 540.976 708.03 531.663 708.029Z" fill="#B3DA2B"/>
<path d="M1063 669.658C1060.79 669.709 1058.69 669.047 1056.58 669.044C1021.46 668.981 986.35 668.969 951.238 669.105C949.57 669.111 947.909 670.59 946.244 671.383C947.928 672.275 949.599 673.899 951.3 673.931C958.594 674.067 965.897 673.676 973.198 673.647C974.091 673.643 974.989 674.668 976.03 675.514C965.895 675.812 955.615 675.812 944.962 675.812C944.962 672.772 944.962 670.386 944.962 667.451C946.48 667.358 948.07 667.176 949.661 667.175C985.76 667.159 1021.86 667.134 1057.96 667.252C1059.67 667.257 1061.38 668.555 1063 669.658Z" fill="#B3DA2B"/>
<path d="M1023.56 809.374C1023.84 806.987 1024.17 805.02 1024.17 803.053C1024.2 763.25 1024.19 723.446 1024.19 683.643C1024.19 681.845 1024.19 680.048 1024.19 678.25C1024.51 678.247 1024.83 678.244 1025.15 678.242C1025.15 679.942 1025.15 681.643 1025.15 683.343C1025.15 724.979 1025.15 766.614 1025.15 808.249C1025.15 809.581 1024.88 810.996 1025.25 812.22C1025.56 813.242 1026.61 814.039 1027.33 814.936C1028.24 814.136 1029.53 813.496 1029.95 812.493C1030.43 811.346 1030.16 809.874 1030.16 808.544C1030.17 766.742 1030.18 724.941 1030.15 683.139C1030.15 681.053 1029.85 678.967 1029.71 676.879C1029.71 676.843 1030 676.754 1030.15 676.75C1030.31 676.746 1030.48 676.815 1030.92 676.949C1031.32 678.032 1031.52 679.018 1031.52 680.005C1031.52 724.336 1031.51 768.668 1031.32 813.751C1030.91 815.273 1030.66 816.044 1030.41 816.816C1028.11 816.458 1025.81 816.1 1023.7 815.253C1023.98 814.507 1023.92 814.287 1023.71 814.103C1023.62 812.667 1023.54 811.231 1023.56 809.374Z" fill="#C9F627"/>
<path d="M992.131 678.296C992.62 678.074 993.389 678.335 993.389 678.595C993.354 722.392 993.248 766.188 993.227 809.984C993.226 812.186 992.059 815.798 995.934 815.52C997.13 815.435 998.995 811.849 999 809.862C999.1 765.752 998.983 721.641 998.922 677.53C998.922 677.411 999.139 677.291 999.563 677.061C999.955 678.94 1000.11 680.931 1000.11 682.922C1000.13 725.225 1000.12 767.529 1000.12 809.832C1000.12 811.982 1000.12 814.133 1000.12 816.688C997.506 816.688 995.118 816.688 992.053 816.688C992.053 770.865 992.053 724.822 992.131 678.296Z" fill="#BFE343"/>
<path d="M699.158 792.976C699.158 792.976 699.571 793.124 699.916 793.555C700.319 796.376 700.378 798.766 700.437 801.157C700.437 801.157 700.227 801.161 699.749 801.246C678.923 801.293 658.574 801.256 638.291 800.814C640.167 799.966 641.976 799.149 643.789 799.139C660.275 799.041 676.762 799.085 693.249 799.086C695.013 799.087 696.778 799.086 698.42 799.086C699.482 794.599 696.884 795.02 694.531 795.022C677.212 795.037 659.892 795.075 642.574 794.946C640.93 794.934 639.294 793.827 637.949 793.239C639.219 793.171 640.193 793.092 641.168 793.013C659.858 793.061 678.547 793.109 697.952 793.163C698.831 793.104 698.995 793.04 699.158 792.976Z" fill="#B8E123"/>
<path d="M843.715 830.748C844.989 826.144 847.838 829.764 849.885 829.242C850.325 829.13 851.836 830.928 851.867 831.879C852.057 837.641 851.962 843.412 851.962 849.511C849.098 849.511 846.709 849.511 843.735 849.511C843.735 843.349 843.735 837.259 843.715 830.748Z" fill="#BDEE12"/>
<path d="M843.736 606.624C846.134 605.285 848.536 604.387 851.973 603.103C851.973 610.595 852.484 616.581 851.647 622.373C851.411 624.009 847.232 625.074 843.741 627.028C843.741 619.181 843.741 613.123 843.736 606.624Z" fill="#BDEE12"/>
<path d="M872.059 625.018C870.337 624.866 869.056 624.731 867.539 624.571C867.539 617.914 867.539 611.507 867.539 604.647C869.94 604.647 872.459 604.647 875.459 604.647C875.459 610.73 875.559 616.838 875.329 622.932C875.301 623.667 873.486 624.335 872.059 625.018Z" fill="#BDEE12"/>
<path d="M875.482 839.057C875.481 842.836 875.481 846.133 875.481 849.638C872.662 849.638 870.374 849.638 867.685 849.638C867.685 843.037 867.685 836.495 867.685 829.43C870.017 829.278 872.422 829.121 875.482 828.922C875.482 832.377 875.482 835.476 875.482 839.057Z" fill="#BDEE12"/>
<path d="M375.563 714.713C376.712 714.076 378.309 713.174 379.918 713.154C390.233 713.024 400.551 713.17 410.864 712.991C412.277 712.967 413.667 711.641 415.068 710.918C413.63 709.956 412.209 708.193 410.75 708.162C399.94 707.925 389.121 708.066 378.306 707.995C376.807 707.986 375.31 707.466 373.89 706.896C388.034 706.609 402.101 706.609 416.437 706.609C416.437 709.498 416.437 711.895 416.437 714.856C402.788 714.856 389.402 714.856 375.563 714.713Z" fill="#B3DA2B"/>
<path d="M688.952 862.888C687.902 863.973 686.752 864.671 685.26 865.575C684.448 863.16 683.905 861.543 683.074 859.07C682.285 862.581 682.609 866.491 677.387 864.281C678.182 859.522 678.991 854.686 679.856 849.511C682.033 849.511 684.091 849.511 686.634 849.511C687.366 853.796 688.109 858.149 688.952 862.888Z" fill="#EEEEEE"/>
<path d="M924.806 789.147C924.821 787.291 924.677 785.055 925.39 783.137C930.789 768.626 930.762 754.159 925.49 739.647C924.101 735.823 922.777 731.975 921.696 728.106C931.276 743.612 932.519 760.328 928.922 777.635C928.12 781.496 926.362 785.159 924.806 789.147Z" fill="#B4DC1E"/>
<path d="M649.765 777.542C665.842 777.569 681.551 777.61 697.728 777.589C698.642 777.547 699.091 777.567 699.874 777.614C700.21 780.084 700.21 782.527 700.21 785.487C679.92 785.487 659.985 785.487 639.86 785.031C641.8 784.393 643.929 784.057 646.058 784.052C662.198 784.011 678.338 784.106 694.476 783.923C696.005 783.905 697.516 782.27 699.035 781.385C697.527 780.605 696.025 779.16 694.51 779.145C676.708 778.978 658.903 779.025 641.1 779.015C641.108 778.827 641.117 778.64 641.132 778.17C642.871 777.808 644.604 777.728 646.765 777.588C647.929 777.537 648.663 777.547 649.765 777.542Z" fill="#C9F627"/>
<path d="M477.851 738.373C478.19 745.048 478.19 745.063 484.778 745.065C508.725 745.072 532.674 744.924 556.618 745.188C561.509 745.242 562.873 743.557 562.084 738.75C562.693 740.763 563.331 743.204 564.07 746.032C534.663 746.032 506.095 746.032 476.811 746.032C477.046 743.43 477.275 740.898 477.851 738.373Z" fill="#C0E735"/>
<path d="M373.689 776.693C373.059 776.359 371.921 775.551 371.919 774.74C371.9 766.69 372.03 758.639 372.197 750.589C372.299 745.673 374.005 744.123 379.202 745.036C391.511 745.634 403.25 745.701 415.029 745.831C415.069 745.895 415.148 746.024 415.148 746.024C401.546 746.024 387.944 746.024 373.709 746.024C373.709 756.658 373.709 766.438 373.689 776.693Z" fill="#B8E123"/>
<path d="M905.934 709.802C902.36 708.487 898.555 707.011 894.852 705.31C883.405 700.051 871.413 699.354 859.074 700.421C856.327 700.659 853.44 699.277 850.401 698.354C858.147 698.366 866.116 698.535 874.069 698.995C885.549 699.659 896.287 702.724 905.934 709.802Z" fill="#B4DC1E"/>
<path d="M375.674 785.576C375.233 785.432 375.301 785.146 375.805 785.048C401.86 784.92 427.41 784.89 452.96 784.859C453.991 783.487 455.021 782.116 456.051 780.744C454.713 780.17 453.376 779.596 451.594 778.726C451.132 778.232 451.116 778.035 451.1 777.838C453.012 777.695 454.924 777.553 457.104 777.391C457.104 780.282 457.104 782.701 457.104 785.72C430.014 785.72 403.065 785.72 375.674 785.576Z" fill="#B8E123"/>
<path d="M375.443 730.316C376.883 729.808 378.573 729.119 380.271 729.1C389.747 728.993 399.229 729.188 408.7 728.941C410.806 728.886 414.707 727.343 414.664 726.695C414.387 722.568 410.789 724.149 408.47 724.115C397.748 723.957 387.022 724.045 376.301 722.978C389.063 722.978 401.825 722.978 415.08 722.895C415.573 722.811 416.042 722.979 416.095 723.612C416.179 725.856 416.209 727.467 416.239 729.078C415.013 729.551 413.791 730.426 412.561 730.436C401.506 730.526 390.448 730.465 378.525 730.297C377.368 730.175 377.078 730.206 376.788 730.236C376.425 730.305 376.061 730.375 375.443 730.316Z" fill="#C9F627"/>
<path d="M849.941 697.732C845.319 697.172 845.718 693.287 846.351 690.219C846.847 687.814 848.791 683.991 850.407 683.823C858.512 682.978 866.721 683.129 875.039 683.283C868.617 683.718 862.01 683.385 855.49 683.984C847.094 684.755 844.822 690.528 849.941 697.732Z" fill="#B4DC1E"/>
<path d="M446.777 635.433C421.788 635.715 396.453 635.779 370.665 635.734C370.832 635.42 371.452 635.036 372.072 635.037C396.858 635.075 421.645 635.148 446.777 635.433Z" fill="#141E01"/>
<path d="M450.646 777.731C451.116 778.035 451.132 778.232 451.185 778.723C426.829 779.023 402.435 779.029 377.759 778.785C377.82 778.31 378.164 778.085 378.507 777.859C402.402 777.781 426.297 777.702 450.646 777.731Z" fill="#C9F627"/>
<path d="M694.824 808.648C681.8 808.954 668.448 809.01 654.636 808.982C655.588 808.621 657.002 808.099 658.414 808.104C670.442 808.148 682.47 808.287 694.824 808.648Z" fill="#141E01"/>
<path d="M893.451 683.654C889.44 681.789 885.681 679.782 881.781 678.099C879.884 677.281 877.726 677.069 875.423 676.316C881.558 677.629 887.956 679.208 894.411 681.214C894.375 682.131 894.282 682.622 894.189 683.113C894.095 683.38 893.914 683.558 893.451 683.654Z" fill="#B4DC1E"/>
<path d="M413.177 739.056C402.402 738.961 391.627 738.865 380.516 738.532C390.873 738.238 401.566 738.182 412.72 738.411C413.18 738.696 413.177 739.056 413.177 739.056Z" fill="#B4DC1E"/>
<path d="M915.452 718.4C912.801 716.342 910.035 713.969 907.275 711.24C909.967 713.284 912.652 715.684 915.452 718.4Z" fill="#B4DC1E"/>
<path d="M877.556 683.921C880.034 683.906 882.893 683.914 885.732 684.149C887.342 684.282 888.92 684.786 890.941 685.168C889.937 685.46 888.457 686.064 887.081 685.882C884.003 685.475 880.976 684.678 877.556 683.921Z" fill="#B4DC1E"/>
<path d="M637.171 635.49C635.125 635.86 633.064 635.86 630.563 635.81C632.227 632.902 634.457 631.427 637.171 635.49Z" fill="#141E01"/>
<path d="M621.183 635.412C619.135 635.83 617.069 635.886 614.56 635.933C616.212 633.575 618.313 631.277 621.183 635.412Z" fill="#141E01"/>
<path d="M920.82 725.796C919.057 723.885 917.215 721.649 915.466 719.051C917.286 720.95 919.013 723.21 920.82 725.796Z" fill="#B4DC1E"/>
<path d="M413.438 739.072C413.177 739.056 413.18 738.696 413.179 738.516C419.443 737.538 415.575 742.368 416.346 744.745C416.1 745.005 415.928 744.883 415.972 744.493C415.417 742.444 414.818 740.785 414.219 739.125C414.045 739.112 413.872 739.1 413.438 739.072Z" fill="#B8E123"/>
<path d="M378.161 777.706C378.163 778.085 377.82 778.31 377.286 778.778C376.158 778.718 375.22 778.414 374.163 777.823C375.3 777.541 376.558 777.546 378.161 777.706Z" fill="#B8E123"/>
<path d="M416.387 728.782C416.209 727.467 416.178 725.856 416.171 723.85C416.307 725.131 416.421 726.808 416.387 728.782Z" fill="#BFF309"/>
<path d="M758.483 815.99C758.062 815.285 757.971 814.533 758.003 813.415C758.354 814.014 758.583 814.978 758.483 815.99Z" fill="#141E01"/>
<path d="M373.37 736.725C372.83 735.763 372.389 734.521 371.949 733.279C372.239 733.191 372.53 733.104 372.821 733.016C372.947 733.563 373.072 734.109 373.253 734.974C373.362 735.677 373.415 736.061 373.37 736.725Z" fill="#C9F627"/>
<path d="M894.431 683.083C894.282 682.622 894.375 682.131 894.639 681.456C894.764 681.865 894.718 682.46 894.431 683.083Z" fill="#BFF011"/>
<path d="M375.488 643.838C375.798 643.567 376.444 643.402 377.147 643.496C376.744 643.818 376.284 643.881 375.488 643.838Z" fill="#B8E123"/>
<path d="M1030.67 816.83C1030.66 816.044 1030.91 815.273 1031.2 814.196C1031.14 814.875 1031.04 815.86 1030.67 816.83Z" fill="#C2F609"/>
<path d="M764.853 815.182C765.199 815.472 765.286 815.887 765.403 816.621C764.926 816.973 764.419 817.005 763.537 817.041C763.163 817.044 763.153 817.059 763.153 817.059C763.633 816.475 764.113 815.891 764.853 815.182Z" fill="#070707"/>
<path d="M364.858 816.067C365.107 816.04 365.344 816.463 365.394 816.7C364.964 816.867 364.484 816.797 364.004 816.727C364.205 816.516 364.406 816.305 364.858 816.067Z" fill="#070707"/>
<path d="M891.587 685.203C891.632 684.741 891.929 684.234 892.512 683.91C892.479 684.447 892.159 684.802 891.587 685.203Z" fill="#B4DC1E"/>
<path d="M1023.62 814.32C1023.92 814.287 1023.98 814.507 1023.81 814.86C1023.74 814.957 1023.53 814.537 1023.62 814.32Z" fill="#C2F609"/>
<path d="M700.08 808.907C699.965 809.082 699.798 809.08 699.4 808.982C699.455 808.834 699.741 808.782 700.08 808.907Z" fill="#141E01"/>
<path d="M358.427 815.947C358.214 815.878 358.151 815.714 358.158 815.293C358.345 815.309 358.461 815.58 358.427 815.947Z" fill="#141E01"/>
<path d="M924.377 789.963C924.081 789.872 923.953 789.666 923.825 789.459C923.948 789.411 924.072 789.364 924.392 789.379C924.588 789.441 924.544 789.846 924.377 789.963Z" fill="#B4DC1E"/>
<path d="M907.238 710.682C907.022 710.802 906.719 710.661 906.284 710.299C906.485 710.193 906.818 710.307 907.238 710.682Z" fill="#B4DC1E"/>
<path d="M763.156 817.049C763.066 817.09 762.984 817.125 763.027 817.11C763.153 817.059 763.163 817.044 763.156 817.049Z" fill="#141E01"/>
<path d="M416.183 745.069C416.086 745.444 415.906 745.754 415.437 746.044C415.148 746.024 415.069 745.895 415.182 745.681C415.502 745.268 415.713 745.073 415.928 744.883C415.928 744.883 416.099 745.005 416.183 745.069Z" fill="#B8E123"/>
<path d="M699.069 792.818C698.995 793.04 698.831 793.104 698.416 793.088C698.436 792.892 698.708 792.776 699.069 792.818Z" fill="#141E01"/>
<path d="M453.059 635.512C452.989 635.696 452.826 635.749 452.419 635.718C452.366 635.303 452.63 635.219 453.059 635.512Z" fill="#141E01"/>
<path d="M456.051 635.501C455.986 635.691 455.825 635.753 455.419 635.734C455.353 635.32 455.614 635.227 456.051 635.501Z" fill="#141E01"/>
<path d="M629.002 638.126C629.222 638.208 629.279 638.376 629.25 638.798C629.056 638.772 628.947 638.492 629.002 638.126Z" fill="#141E01"/>
<path d="M376.989 730.366C377.078 730.206 377.368 730.175 378.096 730.164C378.085 730.287 377.637 730.391 376.989 730.366Z" fill="#BFF309"/>
<path d="M452.67 784.596C427.41 784.89 401.86 784.92 375.871 784.917C376.672 784.604 377.912 784.085 379.152 784.083C402.91 784.033 426.668 784.043 450.426 784.056C451.077 784.056 451.729 784.237 452.67 784.596Z" fill="#C9F627"/>
<path d="M415.972 744.493C415.713 745.073 415.502 745.268 415.142 745.617C403.25 745.701 391.511 745.634 379.464 745.287C389.656 745.013 400.155 744.996 410.654 745.038C414.422 745.053 416.061 743.644 414.353 739.468C414.818 740.784 415.417 742.444 415.972 744.493Z" fill="#C9F627"/>
<path d="M983.822 903.712C983.355 903.891 982.582 903.606 982.604 903.409C982.658 902.923 983.076 902.476 983.348 902.014C983.525 902.439 983.701 902.864 983.822 903.712Z" fill="black"/>
<path d="M794.167 906.894C794.167 896.118 794.167 885.841 794.167 875.403C795.943 875.403 797.359 875.403 799.192 875.403C799.192 894.903 799.192 914.126 799.192 933.887C798.015 934.068 796.499 934.301 794.167 934.659C794.167 925.219 794.167 916.307 794.167 906.894Z" fill="#070707"/>
<path d="M929.555 883.961C929.573 899.273 929.667 914.094 929.499 928.913C929.48 930.598 928.124 933.604 927.155 933.703C923.556 934.069 924.296 930.908 924.284 928.729C924.195 912.243 924.084 895.756 924.24 879.272C924.257 877.403 925.714 874.078 926.792 873.955C930.432 873.54 929.363 876.85 929.531 878.975C929.649 880.465 929.555 881.971 929.555 883.961Z" fill="#070707"/>
<path d="M623.244 928.684C623.244 910.752 623.244 893.295 623.244 875.574C626.061 874.974 628.575 874.376 628.569 878.674C628.543 896.965 628.558 915.257 628.558 933.496C623.316 935.213 623.316 935.213 623.244 928.684Z" fill="#070707"/>
<path d="M452.12 914.736C453.428 920.336 454.446 926.187 455.057 932.08C455.182 933.288 453.781 934.653 453.083 935.946C452.491 934.573 451.45 933.22 451.387 931.822C451.154 926.692 451.246 921.547 451.05 916.019C451.151 915.42 451.418 915.211 452.12 914.736Z" fill="black"/>
<path d="M1044.1 912.727C1045.41 918.492 1046.4 924.523 1047.06 930.592C1047.17 931.626 1045.81 932.817 1045.14 933.935C1044.52 932.764 1043.43 931.613 1043.38 930.417C1043.14 925.099 1043.21 919.769 1043.02 914.049C1043.14 913.439 1043.4 913.222 1044.1 912.727Z" fill="black"/>
<path d="M948.097 912.727C949.408 918.492 950.403 924.523 951.056 930.592C951.167 931.626 949.814 932.817 949.137 933.936C948.523 932.764 947.431 931.613 947.378 930.417C947.144 925.099 947.207 919.769 947.017 914.049C947.136 913.439 947.401 913.222 948.097 912.727Z" fill="black"/>
<path d="M553.085 913.744C554.352 919.666 555.288 925.848 555.935 932.061C556.026 932.936 554.701 933.958 554.032 934.913C553.461 933.894 552.435 932.894 552.396 931.855C552.186 926.385 552.225 920.906 552.028 915.037C552.14 914.434 552.401 914.224 553.085 913.744Z" fill="black"/>
<path d="M638.291 800.813C637.983 803.512 637.74 805.805 637.536 808.505C638.472 809.768 639.368 811.371 640.265 811.37C658.567 811.364 676.869 811.138 695.172 811.104C696.362 811.102 697.553 812.286 698.744 812.919C697.471 813.636 696.202 814.97 694.924 814.978C674.936 815.11 654.947 815.019 634.959 815.123C631.725 815.14 631.061 813.708 631.1 810.881C631.212 802.721 631.132 794.557 631.132 786.395C631.134 739.089 631.138 691.782 631.144 644.475C631.144 642.977 630.911 641.398 631.315 640.011C631.551 639.2 632.836 638.199 633.654 638.194C634.471 638.19 635.724 639.171 636.013 639.991C636.432 641.183 636.176 642.619 636.176 643.951C636.18 685.76 636.182 727.57 636.171 769.38C636.171 771.04 636.164 772.717 635.938 774.356C635.463 777.797 636.748 779.441 640.705 779.024C658.903 779.025 676.707 778.978 694.51 779.145C696.025 779.16 697.527 780.605 699.035 781.385C697.516 782.27 696.005 783.905 694.476 783.923C678.338 784.106 662.197 784.011 646.058 784.052C643.928 784.057 641.8 784.393 639.403 784.908C638.585 787.579 638.037 789.919 637.319 792.714C637.302 793.179 637.454 793.188 637.606 793.197C637.606 793.197 637.64 793.207 637.647 793.218C639.294 793.827 640.93 794.934 642.573 794.946C659.892 795.075 677.211 795.037 694.531 795.022C696.884 795.02 699.482 794.599 698.42 799.086C696.778 799.086 695.013 799.087 693.249 799.086C676.762 799.084 660.275 799.041 643.789 799.139C641.976 799.149 640.167 799.965 638.291 800.813Z" fill="#C3F902"/>
<path d="M767.131 689.044C767.13 673.217 767.061 657.889 767.232 642.563C767.249 641.053 768.741 639.559 769.549 638.057C770.428 639.483 772.073 640.906 772.076 642.334C772.207 698.478 772.207 754.623 772.077 810.767C772.074 812.187 770.413 813.604 769.525 815.021C768.725 813.513 767.229 812.007 767.224 810.496C767.1 770.179 767.129 729.862 767.131 689.044Z" fill="#C5FD02"/>
<path d="M351.044 651.06C351.045 647.398 350.773 644.198 351.172 641.083C351.353 639.669 352.863 638.426 353.771 637.105C354.619 638.491 355.635 639.807 356.253 641.289C356.609 642.141 356.325 643.261 356.325 644.26C356.323 699.236 356.342 754.211 356.243 809.186C356.238 811.47 357.924 815.174 353.811 815.437C353.028 815.487 351.166 811.249 351.159 808.986C351.007 756.51 351.043 704.033 351.044 651.06Z" fill="#C6FD07"/>
<path d="M496.71 915.606C496.643 917.525 496.561 918.997 496.479 920.469C495.929 920.46 495.379 920.451 494.829 920.442C494.829 913.839 494.829 907.236 494.829 900.634C495.005 900.614 495.18 900.594 495.356 900.575C495.802 905.436 496.249 910.298 496.71 915.606Z" fill="#141E01"/>
<path d="M594.419 906.347C594.458 910.881 594.458 914.961 594.458 919.041C594.171 919.211 593.884 919.382 593.597 919.553C593.059 918.651 592.042 917.739 592.061 916.849C592.189 910.823 592.536 904.802 592.851 897.919C593.471 901.155 593.925 903.525 594.419 906.347Z" fill="#141E01"/>
<path d="M864.018 918.198C863.963 911.521 863.963 905.246 863.963 898.972C864.442 898.957 864.921 898.942 865.4 898.927C865.857 904.921 866.332 910.913 866.762 916.909C866.916 919.055 866.456 920.402 864.018 918.198Z" fill="#141E01"/>
<path d="M682.606 900.023C682.75 897.25 682.875 894.949 682.999 892.648C683.17 892.63 683.34 892.613 683.511 892.596C683.965 900.756 684.467 908.914 684.798 917.079C684.831 917.887 683.819 918.737 683.292 919.568C682.816 918.689 681.918 917.803 681.934 916.934C682.038 911.452 682.346 905.973 682.606 900.023Z" fill="#2E2E2E"/>
<path d="M1065.22 910.251C1065.25 903.732 1065.25 897.661 1065.25 891.59C1065.66 891.574 1066.07 891.557 1066.48 891.541C1067.01 900.448 1067.54 909.355 1068.07 918.262C1063.23 916.615 1065.75 913.258 1065.22 910.251Z" fill="#2E2E2E"/>
<path d="M765.529 906.931C765.651 910.393 765.881 913.37 765.793 916.337C765.762 917.399 764.965 918.439 764.517 919.488C763.963 918.532 762.9 917.558 762.933 916.622C763.227 908.225 763.713 899.834 764.128 891.739C764.572 896.458 765.042 901.45 765.529 906.931Z" fill="#2E2E2E"/>
<path d="M740.206 645.321C740.208 699.901 740.236 754.017 740.126 808.133C740.121 810.632 738.874 813.128 738.206 815.625C734.059 814.406 735.236 810.931 735.233 808.164C735.18 754.547 735.189 700.93 735.213 647.313C735.214 644.849 735.186 642.317 735.744 639.952C736.004 638.85 737.636 638.072 738.646 637.147C739.276 638.23 740.244 639.253 740.449 640.411C740.701 641.834 740.316 643.37 740.206 645.321Z" fill="#C6FD07"/>
<path d="M335.198 765.044C335.198 726.42 335.188 688.297 335.214 650.173C335.217 646.713 335.264 643.228 335.7 639.806C335.826 638.819 337.382 638.015 338.283 637.126C339.072 638.1 340.551 639.075 340.551 640.048C340.515 695.135 340.356 750.221 340.21 805.308C340.203 807.639 340.431 810.004 340.095 812.286C339.92 813.479 338.755 814.526 338.037 815.64C337.116 814.589 335.868 813.672 335.369 812.449C334.9 811.299 335.198 809.827 335.198 808.496C335.193 794.178 335.197 779.861 335.198 765.044Z" fill="#C6FD07"/>
<path d="M605.121 794.044C605.12 799.871 605.357 805.215 604.989 810.517C604.861 812.366 603.399 815.524 602.273 815.65C598.404 816.084 599.193 812.657 599.191 810.323C599.161 758.382 599.172 706.441 599.177 654.5C599.177 650.172 598.943 645.822 599.319 641.526C599.453 639.993 601.075 638.591 602.018 637.129C603.053 638.658 604.973 640.178 604.988 641.717C605.189 661.859 605.121 682.004 605.121 702.148C605.121 732.613 605.121 763.078 605.121 794.044Z" fill="#C7FC0A"/>
<path d="M583.2 655.046C583.208 650.049 583.004 645.534 583.351 641.063C583.457 639.69 585.072 638.434 585.995 637.125C587.042 638.477 588.966 639.809 588.997 641.184C589.248 652.174 589.142 663.171 589.143 674.167C589.144 719.147 589.145 764.127 589.143 809.108C589.143 810.44 589.42 811.874 589.015 813.074C588.654 814.142 587.405 815.783 586.761 815.69C585.59 815.522 584.013 814.46 583.629 813.4C583.033 811.756 583.21 809.802 583.209 807.979C583.194 757.168 583.199 706.357 583.2 655.046Z" fill="#C7FC0A"/>
<path d="M325.145 717.044C325.144 748.028 325.145 778.511 325.139 808.995C325.139 810.492 325.401 812.105 324.93 813.45C324.581 814.446 323.331 815.531 322.307 815.748C321.598 815.898 320.118 814.804 319.82 813.968C319.282 812.457 319.221 810.724 319.22 809.083C319.196 753.946 319.202 698.809 319.208 643.673C319.208 642.341 318.87 640.819 319.399 639.731C319.929 638.64 321.273 637.481 322.406 637.308C323.154 637.194 324.542 638.616 324.949 639.63C325.414 640.786 325.135 642.252 325.135 643.583C325.143 667.904 325.143 692.224 325.145 717.044Z" fill="#C7FC0A"/>
<path d="M719.203 672.044C719.206 661.883 719.065 652.217 719.336 642.563C719.387 640.729 720.897 637.522 722.024 637.389C725.91 636.928 725.109 640.364 725.111 642.697C725.143 698.5 725.146 754.304 725.098 810.107C725.096 812.376 726.106 815.93 722.25 815.606C721.084 815.508 719.334 811.949 719.327 809.969C719.162 764.161 719.202 718.353 719.203 672.044Z" fill="#C7FC0A"/>
<path d="M485.358 729.073C484.386 729.072 483.813 729.232 483.401 729.042C481.681 728.249 480.01 727.349 478.321 726.489C480.047 725.664 481.769 724.13 483.501 724.119C507.961 723.963 532.423 724.009 556.885 724.026C558.038 724.027 559.371 723.886 560.29 724.4C561.115 724.862 561.957 726.164 561.905 727.044C561.864 727.749 560.586 728.714 559.692 728.956C558.449 729.293 557.052 729.071 555.721 729.071C532.424 729.073 509.127 729.072 485.358 729.073Z" fill="#C5FD02"/>
<path d="M532.163 708.029C540.976 708.03 549.293 707.896 557.598 708.156C559.117 708.203 560.587 709.852 562.08 710.761C560.566 711.539 559.057 712.987 557.539 712.995C532.601 713.136 507.663 713.137 482.726 712.994C481.23 712.985 479.743 711.508 478.251 710.714C479.763 709.819 481.265 708.164 482.786 708.146C499.077 707.958 515.371 708.029 532.163 708.029Z" fill="#C6FD07"/>
<path d="M637.589 793.17C637.454 793.188 637.302 793.179 637.353 793.125C637.556 793.08 637.571 793.143 637.589 793.17Z" fill="#B8E123"/>
</g>
<defs>
<clipPath id="clip0_164_3">
<rect width="1536" height="1536" fill="white"/>
</clipPath>
</defs>
</svg>
