<svg width="512" height="512" viewBox="0 0 512 512" fill="none" xmlns="http://www.w3.org/2000/svg">
<path d="M198.894 288.103C210.414 303.24 221.591 318.238 228.756 335.617C246.441 378.509 231.077 423.596 190.44 449.003C150.177 474.176 92.1622 471.675 54.38 443.139C16.8925 414.825 6.30834 368.352 28.4818 326.91C45.0462 295.953 68.3327 269.993 91.9035 244.34C92.8398 243.321 94.8142 242.822 96.3084 242.815C116.468 242.717 136.629 242.683 156.787 242.861C158.632 242.877 161 243.988 162.217 245.382C174.483 259.431 186.56 273.645 198.894 288.103ZM108.139 335.995C106.037 327.855 108.79 322.021 116.391 318.511C127.902 313.195 139.838 317.196 146.174 328.494C148.945 333.434 153.035 335.132 157.239 333.086C161.647 330.941 162.893 326.405 160.458 321.185C157.11 314.003 151.994 308.437 144.885 304.908C141.503 303.229 137.886 302.025 134.412 300.62C133.705 290.507 131.969 287.452 126.763 287.083C121.362 286.7 119.329 289.807 117.687 301.066C115.557 301.783 113.293 302.369 111.174 303.288C99.1618 308.5 91.7097 317.309 91.3055 330.704C90.9358 342.96 97.116 351.768 108.09 356.712C113.626 359.206 119.827 360.19 125.649 362.094C131.443 363.99 137.619 365.38 142.762 368.445C149.554 372.493 150.205 381.656 144.897 386.502C134.692 395.818 107.964 394.971 103.829 377.653C102.653 372.726 98.1238 370.73 93.6756 372.08C89.4459 373.364 87.3502 377.66 88.7534 382.544C92.1457 394.352 100.047 402.053 111.459 405.832C116.03 407.346 118.871 408.537 118.447 414.276C118.114 418.78 122.565 422.055 126.742 421.753C130.89 421.453 133.848 418.304 134.126 413.764C134.237 411.956 134.144 410.136 134.144 408.237C137.174 407.395 139.926 406.767 142.587 405.869C155.506 401.509 163.511 392.267 164.146 381.102C164.914 367.598 158.406 356.766 145.21 351.217C139.302 348.732 132.821 347.56 126.548 346.005C119.759 344.322 112.725 343.243 108.139 335.995Z" fill="#FEC238"/>
<path d="M214.212 103.792C228.411 114.498 242.004 126.149 256.931 135.72C291.808 158.082 330.542 171.047 370.993 178.86C384.351 181.44 398.012 182.574 411.58 183.891C418.744 184.586 421.596 181.522 422.011 174.41C422.196 171.25 422.476 168.096 422.739 164.942C422.793 164.294 422.965 163.655 423.214 162.299C437.664 174.456 451.76 186.316 466.275 198.529C450.337 210.151 434.679 221.568 418.064 233.683C418.323 230.079 418.492 227.404 418.712 224.732C419.435 215.95 417.187 213.131 408.432 212.613C345.71 208.906 291.886 184.365 246.102 142.089C234.075 130.983 224.233 117.51 213.539 104.64C213.864 104.034 214.038 103.913 214.212 103.792Z" fill="#FCDD74"/>
<path d="M331.019 285.919C341.321 285.919 351.622 285.919 362.31 285.919C362.31 334.178 362.31 382.359 362.31 431.062C352.149 431.062 342.04 431.062 331.463 430.519C331.002 381.958 331.011 333.939 331.019 285.919Z" fill="#FE646F"/>
<path d="M224.203 225.767C234.661 225.767 245.12 225.767 255.866 225.767C255.866 293.981 255.866 362.192 255.866 430.741C248.523 430.741 241.105 430.741 233.183 430.741C234.871 427.919 236.599 425.209 238.153 422.402C258.374 385.882 255.891 349.781 235.917 314.121C232.348 307.748 228.138 301.735 224.168 294.762C224.143 271.235 224.173 248.501 224.203 225.767Z" fill="#FE646F"/>
<path d="M115.792 143.552C116.298 142.1 116.683 141.002 117.014 139.889C118.408 135.197 121.618 132.42 126.413 132.339C131.218 132.257 134.391 134.964 136.019 139.599C140.644 152.772 149.864 156.536 162.623 150.575C167.509 148.292 172.225 149.22 175.162 153.043C178.2 156.999 177.984 162.24 174.132 166.207C166.25 174.326 158.229 182.315 150.102 190.19C148.976 191.282 146.935 191.908 145.308 191.927C132.826 192.067 120.339 192.104 107.858 191.896C105.979 191.865 103.7 190.836 102.329 189.517C94.7722 182.249 87.4126 174.776 80.0411 167.318C75.4384 162.661 74.6505 157.804 77.6392 153.489C80.7269 149.032 85.6942 148.244 91.7855 151.244C101.236 155.898 109.875 153.239 115.792 143.552Z" fill="#FDC137"/>
<path d="M437.06 343.343C447.496 343.343 457.932 343.343 468.685 343.343C468.685 372.479 468.685 401.472 468.685 431.038C458.445 431.038 448.205 431.038 437.499 430.497C437.041 401.085 437.051 372.214 437.06 343.343Z" fill="#FE646F"/>
<path d="M96.0588 226.78C92.9084 226.757 90.2274 226.932 87.59 226.669C82.0685 226.119 78.65 222.291 78.7581 217.098C78.8646 211.979 82.56 208.084 88.0831 208.059C113.703 207.943 139.324 207.942 164.945 208.048C170.723 208.072 174.316 212.078 174.191 217.602C174.07 223.016 170.452 226.647 164.426 226.718C151.118 226.876 137.807 226.777 124.498 226.78C115.181 226.782 105.865 226.78 96.0588 226.78Z" fill="#807480"/>
<path d="M330.649 285.801C331.011 333.939 331.002 381.958 331.001 430.439C327.894 430.902 324.781 430.902 321.445 430.902C321.445 382.495 321.445 334.406 321.445 285.683C324.388 285.683 327.333 285.683 330.649 285.801Z" fill="#FB4755"/>
<path d="M496.869 449.956C496.32 450.915 495.99 452.276 495.164 452.724C494.257 453.217 492.893 452.885 491.729 452.885C400.5 452.887 309.272 452.887 218.044 452.887C216.736 452.887 215.428 452.887 213.145 452.887C214.582 451.252 215.477 450.234 216.983 449.379C219.567 449.711 221.539 450.024 223.512 450.026C263.491 450.054 303.471 450.059 343.45 450.044C394.59 450.026 445.729 449.987 496.869 449.956Z" fill="#776C77"/>
<path d="M496.927 449.527C445.729 449.987 394.59 450.026 343.45 450.044C303.471 450.059 263.491 450.054 223.512 450.026C221.539 450.024 219.567 449.711 217.286 449.256C218.735 448.327 220.49 447.122 222.247 447.12C312.495 447.029 402.742 447.031 492.99 447.125C494.323 447.127 495.654 448.412 496.927 449.527Z" fill="#9C919C"/>
<path d="M436.607 343.252C437.051 372.214 437.041 401.085 437.039 430.417C434.234 430.878 431.423 430.878 428.207 430.878C428.207 401.821 428.207 372.738 428.207 343.162C430.939 343.162 433.546 343.162 436.607 343.252Z" fill="#FB4755"/>
<path d="M223.759 225.627C224.173 248.501 224.143 271.235 224.072 294.427C221.447 291.455 218.77 288.089 216.333 284.557C215.548 283.419 215.014 281.847 215.007 280.47C214.923 262.895 214.952 245.319 214.973 227.743C214.974 227.121 215.18 226.499 215.36 225.487C218.086 225.487 220.7 225.487 223.759 225.627Z" fill="#FB4755"/>
<path d="M213.177 102.82C213.47 102.979 213.763 103.138 214.134 103.545C214.038 103.913 213.864 104.034 213.412 104.307C212.891 104.312 212.683 104.127 212.643 103.54C212.911 103.057 213.044 102.939 213.177 102.82Z" fill="#FCDD74"/>
<path d="M212.568 103.344C212.549 103.084 212.739 102.658 213.053 102.526C213.044 102.939 212.91 103.057 212.568 103.344Z" fill="#FCDD74"/>
<path d="M108.311 336.338C112.725 343.243 119.759 344.322 126.548 346.005C132.821 347.56 139.302 348.732 145.21 351.217C158.406 356.766 164.914 367.598 164.146 381.102C163.511 392.267 155.506 401.509 142.587 405.869C139.926 406.767 137.174 407.395 134.144 408.237C134.144 410.136 134.237 411.956 134.126 413.764C133.848 418.304 130.89 421.453 126.742 421.753C122.565 422.055 118.114 418.78 118.447 414.276C118.871 408.537 116.03 407.346 111.459 405.832C100.047 402.053 92.1456 394.352 88.7533 382.544C87.3501 377.66 89.4458 373.364 93.6755 372.08C98.1237 370.73 102.653 372.726 103.829 377.653C107.964 394.971 134.692 395.818 144.897 386.502C150.205 381.656 149.553 372.493 142.761 368.445C137.619 365.38 131.443 363.99 125.649 362.094C119.826 360.19 113.626 359.206 108.09 356.712C97.1159 351.768 90.9357 342.96 91.3055 330.704C91.7096 317.309 99.1617 308.5 111.174 303.288C113.293 302.369 115.557 301.783 117.687 301.066C119.329 289.807 121.362 286.7 126.763 287.083C131.969 287.452 133.705 290.507 134.412 300.62C137.886 302.025 141.503 303.229 144.885 304.908C151.994 308.437 157.11 314.003 160.458 321.185C162.893 326.405 161.647 330.941 157.239 333.085C153.035 335.132 148.944 333.434 146.174 328.494C139.838 317.196 127.902 313.195 116.39 318.511C108.79 322.021 106.037 327.855 108.311 336.338Z" fill="#040301"/>
<path d="M147.297 9.64062H159.977C162.836 9.64062 165.016 9.85937 166.516 10.2969C168.531 10.8906 170.258 11.9453 171.695 13.4609C173.133 14.9766 174.227 16.8359 174.977 19.0391C175.727 21.2266 176.102 23.9297 176.102 27.1484C176.102 29.9766 175.75 32.4141 175.047 34.4609C174.188 36.9609 172.961 38.9844 171.367 40.5312C170.164 41.7031 168.539 42.6172 166.492 43.2734C164.961 43.7578 162.914 44 160.352 44H147.297V9.64062ZM154.234 15.4531V38.2109H159.414C161.352 38.2109 162.75 38.1016 163.609 37.8828C164.734 37.6016 165.664 37.125 166.398 36.4531C167.148 35.7812 167.758 34.6797 168.227 33.1484C168.695 31.6016 168.93 29.5 168.93 26.8438C168.93 24.1875 168.695 22.1484 168.227 20.7266C167.758 19.3047 167.102 18.1953 166.258 17.3984C165.414 16.6016 164.344 16.0625 163.047 15.7812C162.078 15.5625 160.18 15.4531 157.352 15.4531H154.234ZM196.375 36.0781L202.938 37.1797C202.094 39.5859 200.758 41.4219 198.93 42.6875C197.117 43.9375 194.844 44.5625 192.109 44.5625C187.781 44.5625 184.578 43.1484 182.5 40.3203C180.859 38.0547 180.039 35.1953 180.039 31.7422C180.039 27.6172 181.117 24.3906 183.273 22.0625C185.43 19.7188 188.156 18.5469 191.453 18.5469C195.156 18.5469 198.078 19.7734 200.219 22.2266C202.359 24.6641 203.383 28.4062 203.289 33.4531H186.789C186.836 35.4062 187.367 36.9297 188.383 38.0234C189.398 39.1016 190.664 39.6406 192.18 39.6406C193.211 39.6406 194.078 39.3594 194.781 38.7969C195.484 38.2344 196.016 37.3281 196.375 36.0781ZM196.75 29.4219C196.703 27.5156 196.211 26.0703 195.273 25.0859C194.336 24.0859 193.195 23.5859 191.852 23.5859C190.414 23.5859 189.227 24.1094 188.289 25.1562C187.352 26.2031 186.891 27.625 186.906 29.4219H196.75ZM206.359 36.8984L212.969 35.8906C213.25 37.1719 213.82 38.1484 214.68 38.8203C215.539 39.4766 216.742 39.8047 218.289 39.8047C219.992 39.8047 221.273 39.4922 222.133 38.8672C222.711 38.4297 223 37.8438 223 37.1094C223 36.6094 222.844 36.1953 222.531 35.8672C222.203 35.5547 221.469 35.2656 220.328 35C215.016 33.8281 211.648 32.7578 210.227 31.7891C208.258 30.4453 207.273 28.5781 207.273 26.1875C207.273 24.0312 208.125 22.2188 209.828 20.75C211.531 19.2812 214.172 18.5469 217.75 18.5469C221.156 18.5469 223.688 19.1016 225.344 20.2109C227 21.3203 228.141 22.9609 228.766 25.1328L222.555 26.2812C222.289 25.3125 221.781 24.5703 221.031 24.0547C220.297 23.5391 219.242 23.2812 217.867 23.2812C216.133 23.2812 214.891 23.5234 214.141 24.0078C213.641 24.3516 213.391 24.7969 213.391 25.3438C213.391 25.8125 213.609 26.2109 214.047 26.5391C214.641 26.9766 216.688 27.5938 220.188 28.3906C223.703 29.1875 226.156 30.1641 227.547 31.3203C228.922 32.4922 229.609 34.125 229.609 36.2188C229.609 38.5 228.656 40.4609 226.75 42.1016C224.844 43.7422 222.023 44.5625 218.289 44.5625C214.898 44.5625 212.211 43.875 210.227 42.5C208.258 41.125 206.969 39.2578 206.359 36.8984ZM235.211 19.1094H241.352V22.7656C242.148 21.5156 243.227 20.5 244.586 19.7188C245.945 18.9375 247.453 18.5469 249.109 18.5469C252 18.5469 254.453 19.6797 256.469 21.9453C258.484 24.2109 259.492 27.3672 259.492 31.4141C259.492 35.5703 258.477 38.8047 256.445 41.1172C254.414 43.4141 251.953 44.5625 249.062 44.5625C247.688 44.5625 246.438 44.2891 245.312 43.7422C244.203 43.1953 243.031 42.2578 241.797 40.9297V53.4688H235.211V19.1094ZM241.727 31.1328C241.727 33.9297 242.281 36 243.391 37.3438C244.5 38.6719 245.852 39.3359 247.445 39.3359C248.977 39.3359 250.25 38.7266 251.266 37.5078C252.281 36.2734 252.789 34.2578 252.789 31.4609C252.789 28.8516 252.266 26.9141 251.219 25.6484C250.172 24.3828 248.875 23.75 247.328 23.75C245.719 23.75 244.383 24.375 243.32 25.625C242.258 26.8594 241.727 28.6953 241.727 31.1328ZM279.156 36.0781L285.719 37.1797C284.875 39.5859 283.539 41.4219 281.711 42.6875C279.898 43.9375 277.625 44.5625 274.891 44.5625C270.562 44.5625 267.359 43.1484 265.281 40.3203C263.641 38.0547 262.82 35.1953 262.82 31.7422C262.82 27.6172 263.898 24.3906 266.055 22.0625C268.211 19.7188 270.938 18.5469 274.234 18.5469C277.938 18.5469 280.859 19.7734 283 22.2266C285.141 24.6641 286.164 28.4062 286.07 33.4531H269.57C269.617 35.4062 270.148 36.9297 271.164 38.0234C272.18 39.1016 273.445 39.6406 274.961 39.6406C275.992 39.6406 276.859 39.3594 277.562 38.7969C278.266 38.2344 278.797 37.3281 279.156 36.0781ZM279.531 29.4219C279.484 27.5156 278.992 26.0703 278.055 25.0859C277.117 24.0859 275.977 23.5859 274.633 23.5859C273.195 23.5859 272.008 24.1094 271.07 25.1562C270.133 26.2031 269.672 27.625 269.688 29.4219H279.531ZM289.141 36.8984L295.75 35.8906C296.031 37.1719 296.602 38.1484 297.461 38.8203C298.32 39.4766 299.523 39.8047 301.07 39.8047C302.773 39.8047 304.055 39.4922 304.914 38.8672C305.492 38.4297 305.781 37.8438 305.781 37.1094C305.781 36.6094 305.625 36.1953 305.312 35.8672C304.984 35.5547 304.25 35.2656 303.109 35C297.797 33.8281 294.43 32.7578 293.008 31.7891C291.039 30.4453 290.055 28.5781 290.055 26.1875C290.055 24.0312 290.906 22.2188 292.609 20.75C294.312 19.2812 296.953 18.5469 300.531 18.5469C303.938 18.5469 306.469 19.1016 308.125 20.2109C309.781 21.3203 310.922 22.9609 311.547 25.1328L305.336 26.2812C305.07 25.3125 304.562 24.5703 303.812 24.0547C303.078 23.5391 302.023 23.2812 300.648 23.2812C298.914 23.2812 297.672 23.5234 296.922 24.0078C296.422 24.3516 296.172 24.7969 296.172 25.3438C296.172 25.8125 296.391 26.2109 296.828 26.5391C297.422 26.9766 299.469 27.5938 302.969 28.3906C306.484 29.1875 308.938 30.1641 310.328 31.3203C311.703 32.4922 312.391 34.125 312.391 36.2188C312.391 38.5 311.438 40.4609 309.531 42.1016C307.625 43.7422 304.805 44.5625 301.07 44.5625C297.68 44.5625 294.992 43.875 293.008 42.5C291.039 41.125 289.75 39.2578 289.141 36.8984ZM323.102 26.7031L317.125 25.625C317.797 23.2188 318.953 21.4375 320.594 20.2812C322.234 19.125 324.672 18.5469 327.906 18.5469C330.844 18.5469 333.031 18.8984 334.469 19.6016C335.906 20.2891 336.914 21.1719 337.492 22.25C338.086 23.3125 338.383 25.2734 338.383 28.1328L338.312 35.8203C338.312 38.0078 338.414 39.625 338.617 40.6719C338.836 41.7031 339.234 42.8125 339.812 44H333.297C333.125 43.5625 332.914 42.9141 332.664 42.0547C332.555 41.6641 332.477 41.4062 332.43 41.2812C331.305 42.375 330.102 43.1953 328.82 43.7422C327.539 44.2891 326.172 44.5625 324.719 44.5625C322.156 44.5625 320.133 43.8672 318.648 42.4766C317.18 41.0859 316.445 39.3281 316.445 37.2031C316.445 35.7969 316.781 34.5469 317.453 33.4531C318.125 32.3438 319.062 31.5 320.266 30.9219C321.484 30.3281 323.234 29.8125 325.516 29.375C328.594 28.7969 330.727 28.2578 331.914 27.7578V27.1016C331.914 25.8359 331.602 24.9375 330.977 24.4062C330.352 23.8594 329.172 23.5859 327.438 23.5859C326.266 23.5859 325.352 23.8203 324.695 24.2891C324.039 24.7422 323.508 25.5469 323.102 26.7031ZM331.914 32.0469C331.07 32.3281 329.734 32.6641 327.906 33.0547C326.078 33.4453 324.883 33.8281 324.32 34.2031C323.461 34.8125 323.031 35.5859 323.031 36.5234C323.031 37.4453 323.375 38.2422 324.062 38.9141C324.75 39.5859 325.625 39.9219 326.688 39.9219C327.875 39.9219 329.008 39.5312 330.086 38.75C330.883 38.1562 331.406 37.4297 331.656 36.5703C331.828 36.0078 331.914 34.9375 331.914 33.3594V32.0469ZM342.578 36.8984L349.188 35.8906C349.469 37.1719 350.039 38.1484 350.898 38.8203C351.758 39.4766 352.961 39.8047 354.508 39.8047C356.211 39.8047 357.492 39.4922 358.352 38.8672C358.93 38.4297 359.219 37.8438 359.219 37.1094C359.219 36.6094 359.062 36.1953 358.75 35.8672C358.422 35.5547 357.688 35.2656 356.547 35C351.234 33.8281 347.867 32.7578 346.445 31.7891C344.477 30.4453 343.492 28.5781 343.492 26.1875C343.492 24.0312 344.344 22.2188 346.047 20.75C347.75 19.2812 350.391 18.5469 353.969 18.5469C357.375 18.5469 359.906 19.1016 361.562 20.2109C363.219 21.3203 364.359 22.9609 364.984 25.1328L358.773 26.2812C358.508 25.3125 358 24.5703 357.25 24.0547C356.516 23.5391 355.461 23.2812 354.086 23.2812C352.352 23.2812 351.109 23.5234 350.359 24.0078C349.859 24.3516 349.609 24.7969 349.609 25.3438C349.609 25.8125 349.828 26.2109 350.266 26.5391C350.859 26.9766 352.906 27.5938 356.406 28.3906C359.922 29.1875 362.375 30.1641 363.766 31.3203C365.141 32.4922 365.828 34.125 365.828 36.2188C365.828 38.5 364.875 40.4609 362.969 42.1016C361.062 43.7422 358.242 44.5625 354.508 44.5625C351.117 44.5625 348.43 43.875 346.445 42.5C344.477 41.125 343.188 39.2578 342.578 36.8984Z" fill="black"/>
</svg>
