<svg width="512" height="512" viewBox="0 0 512 512" fill="none" xmlns="http://www.w3.org/2000/svg">
<path d="M198.894 288.103C210.414 303.24 221.591 318.238 228.756 335.617C246.441 378.509 231.077 423.596 190.44 449.003C150.177 474.176 92.1622 471.675 54.38 443.139C16.8925 414.825 6.30833 368.352 28.4818 326.91C45.0462 295.953 68.3327 269.993 91.9035 244.34C92.8398 243.321 94.8142 242.822 96.3084 242.815C116.468 242.717 136.629 242.683 156.787 242.861C158.632 242.877 161 243.988 162.217 245.382C174.483 259.431 186.56 273.645 198.894 288.103ZM108.139 335.995C106.037 327.855 108.79 322.021 116.391 318.511C127.902 313.195 139.838 317.196 146.174 328.494C148.945 333.434 153.035 335.132 157.239 333.086C161.647 330.941 162.893 326.405 160.458 321.185C157.11 314.003 151.994 308.437 144.885 304.908C141.503 303.229 137.886 302.025 134.412 300.62C133.705 290.507 131.969 287.452 126.763 287.083C121.362 286.7 119.329 289.807 117.687 301.066C115.557 301.783 113.293 302.369 111.174 303.288C99.1618 308.5 91.7097 317.309 91.3055 330.704C90.9358 342.96 97.116 351.768 108.09 356.712C113.626 359.206 119.827 360.19 125.649 362.094C131.443 363.99 137.619 365.38 142.762 368.445C149.554 372.493 150.205 381.656 144.897 386.502C134.692 395.818 107.964 394.971 103.829 377.653C102.653 372.726 98.1238 370.73 93.6756 372.08C89.4459 373.364 87.3502 377.66 88.7534 382.544C92.1457 394.352 100.047 402.053 111.459 405.832C116.03 407.346 118.871 408.537 118.447 414.276C118.114 418.78 122.565 422.055 126.742 421.753C130.89 421.453 133.848 418.304 134.126 413.764C134.237 411.956 134.144 410.136 134.144 408.237C137.174 407.395 139.926 406.767 142.587 405.869C155.506 401.509 163.511 392.267 164.146 381.102C164.914 367.598 158.406 356.766 145.21 351.217C139.302 348.732 132.821 347.56 126.548 346.005C119.759 344.322 112.725 343.243 108.139 335.995Z" fill="#FEC238"/>
<path d="M214.212 103.792C228.411 114.498 242.004 126.149 256.931 135.72C291.808 158.082 330.542 171.047 370.993 178.86C384.351 181.44 398.012 182.574 411.58 183.891C418.744 184.586 421.596 181.522 422.011 174.41C422.196 171.25 422.476 168.096 422.739 164.942C422.793 164.294 422.965 163.655 423.214 162.299C437.664 174.456 451.76 186.316 466.275 198.529C450.337 210.151 434.679 221.568 418.064 233.683C418.323 230.079 418.492 227.404 418.712 224.732C419.435 215.95 417.187 213.131 408.432 212.613C345.71 208.906 291.886 184.365 246.102 142.089C234.075 130.983 224.233 117.51 213.539 104.64C213.864 104.034 214.038 103.913 214.212 103.792Z" fill="#FCDD74"/>
<path d="M331.019 285.919C341.321 285.919 351.622 285.919 362.31 285.919C362.31 334.178 362.31 382.359 362.31 431.062C352.149 431.062 342.04 431.062 331.463 430.519C331.002 381.958 331.011 333.939 331.019 285.919Z" fill="#FCDE76"/>
<path d="M224.203 225.767C234.661 225.767 245.12 225.767 255.866 225.767C255.866 293.981 255.866 362.192 255.866 430.741C248.523 430.741 241.105 430.741 233.183 430.741C234.871 427.919 236.599 425.209 238.153 422.402C258.374 385.882 255.891 349.781 235.917 314.121C232.348 307.748 228.138 301.735 224.168 294.762C224.143 271.235 224.173 248.501 224.203 225.767Z" fill="#6BF4C1"/>
<path d="M115.792 143.552C116.298 142.1 116.683 141.002 117.014 139.889C118.408 135.197 121.618 132.42 126.413 132.339C131.218 132.257 134.391 134.964 136.019 139.599C140.644 152.772 149.864 156.536 162.623 150.575C167.509 148.292 172.225 149.22 175.162 153.043C178.2 156.999 177.984 162.24 174.132 166.207C166.25 174.326 158.229 182.315 150.102 190.19C148.976 191.282 146.935 191.908 145.308 191.927C132.826 192.067 120.339 192.104 107.858 191.896C105.979 191.865 103.7 190.836 102.329 189.517C94.7722 182.249 87.4126 174.776 80.0411 167.318C75.4384 162.661 74.6505 157.804 77.6392 153.489C80.7269 149.032 85.6942 148.244 91.7855 151.244C101.236 155.898 109.875 153.239 115.792 143.552Z" fill="#FDC137"/>
<path d="M437.06 343.343C447.496 343.343 457.932 343.343 468.685 343.343C468.685 372.479 468.685 401.472 468.685 431.038C458.445 431.038 448.205 431.038 437.499 430.497C437.041 401.085 437.051 372.214 437.06 343.343Z" fill="#FE646F"/>
<path d="M96.0588 226.78C92.9084 226.757 90.2274 226.932 87.59 226.669C82.0685 226.119 78.65 222.291 78.7581 217.098C78.8646 211.979 82.56 208.084 88.0831 208.059C113.703 207.943 139.324 207.942 164.945 208.048C170.723 208.072 174.316 212.078 174.191 217.602C174.07 223.016 170.452 226.647 164.426 226.718C151.118 226.876 137.807 226.777 124.498 226.78C115.181 226.782 105.865 226.78 96.0588 226.78Z" fill="#807480"/>
<path d="M330.649 285.801C331.011 333.939 331.002 381.958 331.001 430.439C327.894 430.902 324.781 430.902 321.445 430.902C321.445 382.495 321.445 334.406 321.445 285.683C324.388 285.683 327.333 285.683 330.649 285.801Z" fill="#F7CA61"/>
<path d="M496.869 449.956C496.32 450.915 495.99 452.276 495.164 452.724C494.257 453.217 492.893 452.885 491.729 452.885C400.5 452.887 309.272 452.887 218.044 452.887C216.736 452.887 215.428 452.887 213.145 452.887C214.582 451.252 215.477 450.234 216.983 449.379C219.567 449.711 221.539 450.024 223.512 450.026C263.491 450.054 303.471 450.059 343.45 450.044C394.59 450.026 445.729 449.987 496.869 449.956Z" fill="#776C77"/>
<path d="M496.927 449.527C445.729 449.987 394.59 450.026 343.45 450.044C303.471 450.059 263.491 450.054 223.512 450.026C221.539 450.024 219.567 449.711 217.286 449.256C218.735 448.327 220.49 447.122 222.247 447.12C312.495 447.029 402.742 447.031 492.99 447.125C494.323 447.127 495.654 448.412 496.927 449.527Z" fill="#9C919C"/>
<path d="M436.607 343.252C437.051 372.214 437.041 401.085 437.039 430.417C434.234 430.878 431.423 430.878 428.207 430.878C428.207 401.821 428.207 372.738 428.207 343.162C430.939 343.162 433.546 343.162 436.607 343.252Z" fill="#FB4755"/>
<path d="M223.759 225.627C224.173 248.501 224.143 271.235 224.072 294.427C221.447 291.455 218.77 288.089 216.333 284.557C215.548 283.419 215.014 281.847 215.007 280.47C214.923 262.895 214.952 245.319 214.973 227.743C214.974 227.121 215.18 226.499 215.36 225.487C218.086 225.487 220.7 225.487 223.759 225.627Z" fill="#03DD95"/>
<path d="M213.177 102.82C213.47 102.979 213.763 103.138 214.134 103.545C214.038 103.913 213.864 104.034 213.412 104.307C212.891 104.312 212.683 104.127 212.643 103.54C212.911 103.057 213.044 102.939 213.177 102.82Z" fill="#FCDD74"/>
<path d="M212.568 103.344C212.549 103.084 212.739 102.658 213.053 102.526C213.044 102.939 212.91 103.057 212.568 103.344Z" fill="#FCDD74"/>
<path d="M108.311 336.338C112.725 343.243 119.759 344.322 126.548 346.005C132.821 347.56 139.302 348.732 145.21 351.217C158.406 356.766 164.914 367.598 164.146 381.102C163.511 392.267 155.506 401.509 142.587 405.869C139.926 406.767 137.174 407.395 134.144 408.237C134.144 410.136 134.237 411.956 134.126 413.764C133.848 418.304 130.89 421.453 126.742 421.753C122.565 422.055 118.114 418.78 118.447 414.276C118.871 408.537 116.03 407.346 111.459 405.832C100.047 402.053 92.1456 394.352 88.7533 382.544C87.3501 377.66 89.4458 373.364 93.6755 372.08C98.1237 370.73 102.653 372.726 103.829 377.653C107.964 394.971 134.692 395.818 144.897 386.502C150.205 381.656 149.553 372.493 142.761 368.445C137.619 365.38 131.443 363.99 125.649 362.094C119.826 360.19 113.626 359.206 108.09 356.712C97.1159 351.768 90.9357 342.96 91.3055 330.704C91.7096 317.309 99.1617 308.5 111.174 303.288C113.293 302.369 115.557 301.783 117.687 301.066C119.329 289.807 121.362 286.7 126.763 287.083C131.969 287.452 133.705 290.507 134.412 300.62C137.886 302.025 141.503 303.229 144.885 304.908C151.994 308.437 157.11 314.003 160.458 321.185C162.893 326.405 161.647 330.941 157.239 333.085C153.035 335.132 148.944 333.434 146.174 328.494C139.838 317.196 127.902 313.195 116.39 318.511C108.79 322.021 106.037 327.855 108.311 336.338Z" fill="#040301"/>
</svg>
